<svg version="1.1" viewBox="0 0 86 86" xmlns="http://www.w3.org/2000/svg">
 <g transform="translate(43,43)">
  <path d="m28.7-28.7q11.9 11.9 11.9 28.7t-11.9 28.7-28.7 11.9-28.7-11.9-11.9-28.7 11.9-28.7 28.7-11.9 28.7 11.9m6.2 18.6-23.5-3.6-10.3-20.6-10.8 20.4-23.55 2.85 16.8 16.1-4.05 22.55 21.1-10.3 20.65 10.55-3.6-22.55 17.25-15.4" fill="#ff0" fill-rule="evenodd"/>
  <path d="m34.9-10.1-17.25 15.4 3.6 22.55-20.65-10.55-21.1 10.3 4.05-22.55-16.8-16.1 23.55-2.85 10.8-20.4 10.3 20.6 23.5 3.6" fill="#f00" fill-rule="evenodd"/>
  <path d="m28.7-28.7q11.9 11.9 11.9 28.7t-11.9 28.7-28.7 11.9-28.7-11.9-11.9-28.7 11.9-28.7 28.7-11.9 28.7 11.9z" fill="none" stroke="#fc0" stroke-linecap="round" stroke-linejoin="round" stroke-width="3"/>
  <path d="m-37.25 2.7q13.1 34.1 57.45 30.2-24.95 10.2-41.45-1.55-16.55-11.75-16-28.65" fill="#f9ca0f" fill-opacity=".70196" fill-rule="evenodd"/>
  <path d="m23.4-28.4q15.5 14.7 13.25 30.3-5.4-26.3-36.95-38.75 13.8 0.45 23.7 8.45" fill="#fff" fill-opacity=".70196" fill-rule="evenodd"/>
 </g>
</svg>
