<svg version="1.1" viewBox="0 0 384 80" xmlns="http://www.w3.org/2000/svg" xmlns:xlink="http://www.w3.org/1999/xlink">
 <g transform="translate(372,163.55)">
  <use transform="translate(-371.2,-163.55)" width="382.39999" height="80.050003" xlink:href="#shape0"/>
  <use transform="translate(-363.5,-156.35)" width="366.39999" height="66.050003" xlink:href="#text0"/>
 </g>
 <defs>
  <g id="shape0" transform="translate(371.2,163.55)">
   <path d="m-20.75-129.65q-1.5 1.85-1.5 6.2 0 4 1.55 5.85 1.55 1.8 3.95 1.8 2.05 0 3.45-1.75 1.45-1.7 1.45-6.15 0-4.1-1.5-5.95-1.45-1.8-3.55-1.8-2.25 0-3.85 1.8m-2.4-7.1q1.45-3.15 3.8-4.4 3.15-1.65 6.9-1.65 7.5 0 11.55 5.7 4.1 5.7 4.1 13.95 0 9.15-4.45 14.05-4.45 4.85-11.3 4.85-3.25 0-6-1.1-2.7-1.15-3.6-3.1v16.95h-15.2v-50.5h14.2v5.25m-95.2-1.85q2.15 2.15 3.6 6.6l-14.15 1.35q-0.6-1.95-1.4-2.55-1.6-1.05-3.65-1.05-2.1 0-2.9 0.65-0.85 0.65-0.85 1.5 0 0.9 0.95 1.35 1.25 0.6 5.6 1.15 6.95 0.8 10.4 2.2 3.45 1.45 5.3 4.15 1.9 2.75 1.9 5.95 0 3.3-2 6.35-1.95 3.15-6.15 4.9-4.15 1.8-11.2 1.8-10 0-14.3-2.9-4.35-2.9-5.6-9.1l14.75-1.3q0.9 2.65 2.25 3.6 1.3 0.85 3.6 0.85 2.5 0 3.9-1.1 0.85-0.6 0.85-1.55 0-1.05-1.2-1.65-0.95-0.55-6.2-1.6-6.6-1-9.5-2.1t-4.9-3.75q-2.05-2.7-2.05-6.2 0-3.75 2.2-6.45t5.9-4q3.75-1.3 9.9-1.3 6.45 0 9.65 1 3.2 1.05 5.3 3.2m49.15-3.4v20.25q0 3.15 1.05 4.3 1.05 1.2 2.95 1.2 2.1 0 3.5-1.7 1.35-1.65 1.35-6.25v-17.8h15.05v36.95h-14.15v-5.75q-1.7 3.4-4.7 5-3.05 1.55-7.45 1.55-5.95 0-9.3-3.55-3.4-3.55-3.4-10.85v-23.35h15.1m-133.8 14.65h12q-0.4-2.95-1.95-4.5-1.5-1.55-4.05-1.55-2.85 0-4.45 1.7-1.25 2.1-1.55 4.35m17.85-13.05q4.6 2.4 7 7 2.4 4.55 2.4 11.75v2.2h-27.3q0.35 2.35 1.2 3.55 2.15 2.3 5 2.3 1.85 0 3.5-0.9 0.95-0.55 2.35-2.35l14.5 1.35q-3.3 6.45-7.8 8.85-4.55 2.4-12.85 2.4-7.25 0-11.45-2.05t-6.95-6.6q-2.75-4.5-2.75-10.55 0-8.65 5.5-14 5.55-5.35 15.25-5.35 7.8 0 12.4 2.4m16.3 4.3-2.3-10.55v-8.9h15v8.85l-2.3 10.6h-10.4m-91.95-6.7q4.4 0 7.1 1.6 2.6 1.65 3.8 4.4 2.65-3.35 5.45-4.7 2.75-1.3 6.8-1.3 6 0 9.45 3.6 3.4 3.65 3.4 11.1v23.05h-15.05v-20.95q0-2.15-0.85-3.2-1.15-1.55-2.85-1.55-2.05 0-3.35 1.5-1.25 1.55-1.25 5.15v19.05h-15.05v-20.3q0-2.2-0.25-2.95-0.4-1.15-1.25-1.85-0.9-0.65-2.15-0.65-2 0-3.3 1.5-1.35 1.6-1.35 5.4v18.85h-15.05v-36.95h14.15v5.2q1.6-3.15 4.5-4.6 2.95-1.4 7.1-1.4m-33.7-2.05h-15.05v-10.7h15.05v10.7m0 39.8h-15.05v-36.95h15.05v36.95m-68.7-50.5h47.55v13.5h-15.45v37h-16.6v-37h-15.5v-13.5" fill-rule="evenodd"/>
   <path d="m-20.75-129.65q-1.5 1.85-1.5 6.2 0 4 1.55 5.85 1.55 1.8 3.95 1.8 2.05 0 3.45-1.75 1.45-1.7 1.45-6.15 0-4.1-1.5-5.95-1.45-1.8-3.55-1.8-2.25 0-3.85 1.8m-2.4-7.1q1.45-3.15 3.8-4.4 3.15-1.65 6.9-1.65 7.5 0 11.55 5.7 4.1 5.7 4.1 13.95 0 9.15-4.45 14.05-4.45 4.85-11.3 4.85-3.25 0-6-1.1-2.7-1.15-3.6-3.1v16.95h-15.2v-50.5h14.2v5.25m-95.2-1.85q2.15 2.15 3.6 6.6l-14.15 1.35q-0.6-1.95-1.4-2.55-1.6-1.05-3.65-1.05-2.1 0-2.9 0.65-0.85 0.65-0.85 1.5 0 0.9 0.95 1.35 1.25 0.6 5.6 1.15 6.95 0.8 10.4 2.2 3.45 1.45 5.3 4.15 1.9 2.75 1.9 5.95 0 3.3-2 6.35-1.95 3.15-6.15 4.9-4.15 1.8-11.2 1.8-10 0-14.3-2.9-4.35-2.9-5.6-9.1l14.75-1.3q0.9 2.65 2.25 3.6 1.3 0.85 3.6 0.85 2.5 0 3.9-1.1 0.85-0.6 0.85-1.55 0-1.05-1.2-1.65-0.95-0.55-6.2-1.6-6.6-1-9.5-2.1t-4.9-3.75q-2.05-2.7-2.05-6.2 0-3.75 2.2-6.45t5.9-4q3.75-1.3 9.9-1.3 6.45 0 9.65 1 3.2 1.05 5.3 3.2m49.15-3.4v20.25q0 3.15 1.05 4.3 1.05 1.2 2.95 1.2 2.1 0 3.5-1.7 1.35-1.65 1.35-6.25v-17.8h15.05v36.95h-14.15v-5.75q-1.7 3.4-4.7 5-3.05 1.55-7.45 1.55-5.95 0-9.3-3.55-3.4-3.55-3.4-10.85v-23.35h15.1m-133.8 14.65h12q-0.4-2.95-1.95-4.5-1.5-1.55-4.05-1.55-2.85 0-4.45 1.7-1.25 2.1-1.55 4.35m17.85-13.05q4.6 2.4 7 7 2.4 4.55 2.4 11.75v2.2h-27.3q0.35 2.35 1.2 3.55 2.15 2.3 5 2.3 1.85 0 3.5-0.9 0.95-0.55 2.35-2.35l14.5 1.35q-3.3 6.45-7.8 8.85-4.55 2.4-12.85 2.4-7.25 0-11.45-2.05t-6.95-6.6q-2.75-4.5-2.75-10.55 0-8.65 5.5-14 5.55-5.35 15.25-5.35 7.8 0 12.4 2.4m16.3 4.3-2.3-10.55v-8.9h15v8.85l-2.3 10.6h-10.4m-91.95-6.7q4.4 0 7.1 1.6 2.6 1.65 3.8 4.4 2.65-3.35 5.45-4.7 2.75-1.3 6.8-1.3 6 0 9.45 3.6 3.4 3.65 3.4 11.1v23.05h-15.05v-20.95q0-2.15-0.85-3.2-1.15-1.55-2.85-1.55-2.05 0-3.35 1.5-1.25 1.55-1.25 5.15v19.05h-15.05v-20.3q0-2.2-0.25-2.95-0.4-1.15-1.25-1.85-0.9-0.65-2.15-0.65-2 0-3.3 1.5-1.35 1.6-1.35 5.4v18.85h-15.05v-36.95h14.15v5.2q1.6-3.15 4.5-4.6 2.95-1.4 7.1-1.4m-33.7-2.05h-15.05v-10.7h15.05v10.7m0 39.8h-15.05v-36.95h15.05v36.95m-68.7-50.5h47.55v13.5h-15.45v37h-16.6v-37h-15.5v-13.5" fill="none" stroke="#000" stroke-linecap="round" stroke-linejoin="round" stroke-width="16"/>
   <path d="m-20.75-129.65q-1.5 1.85-1.5 6.2 0 4 1.55 5.85 1.55 1.8 3.95 1.8 2.05 0 3.45-1.75 1.45-1.7 1.45-6.15 0-4.1-1.5-5.95-1.45-1.8-3.55-1.8-2.25 0-3.85 1.8m-2.4-7.1q1.45-3.15 3.8-4.4 3.15-1.65 6.9-1.65 7.5 0 11.55 5.7 4.1 5.7 4.1 13.95 0 9.15-4.45 14.05-4.45 4.85-11.3 4.85-3.25 0-6-1.1-2.7-1.15-3.6-3.1v16.95h-15.2v-50.5h14.2v5.25m-100.5-5.05q3.2 1.05 5.3 3.2 2.15 2.15 3.6 6.6l-14.15 1.35q-0.6-1.95-1.4-2.55-1.6-1.05-3.65-1.05-2.1 0-2.9 0.65-0.85 0.65-0.85 1.5 0 0.9 0.95 1.35 1.25 0.6 5.6 1.15 6.95 0.8 10.4 2.2 3.45 1.45 5.3 4.15 1.9 2.75 1.9 5.95 0 3.3-2 6.35-1.95 3.15-6.15 4.9-4.15 1.8-11.2 1.8-10 0-14.3-2.9-4.35-2.9-5.6-9.1l14.75-1.3q0.9 2.65 2.25 3.6 1.3 0.85 3.6 0.85 2.5 0 3.9-1.1 0.85-0.6 0.85-1.55 0-1.05-1.2-1.65-0.95-0.55-6.2-1.6-6.6-1-9.5-2.1t-4.9-3.75q-2.05-2.7-2.05-6.2 0-3.75 2.2-6.45t5.9-4q3.75-1.3 9.9-1.3 6.45 0 9.65 1m63.3-0.2h15.05v36.95h-14.15v-5.75q-1.7 3.4-4.7 5-3.05 1.55-7.45 1.55-5.95 0-9.3-3.55-3.4-3.55-3.4-10.85v-23.35h15.1v20.25q0 3.15 1.05 4.3 1.05 1.2 2.95 1.2 2.1 0 3.5-1.7 1.35-1.65 1.35-6.25v-17.8m-124.8 1.6q4.6 2.4 7 7 2.4 4.55 2.4 11.75v2.2h-27.3q0.35 2.35 1.2 3.55 2.15 2.3 5 2.3 1.85 0 3.5-0.9 0.95-0.55 2.35-2.35l14.5 1.35q-3.3 6.45-7.8 8.85-4.55 2.4-12.85 2.4-7.25 0-11.45-2.05t-6.95-6.6q-2.75-4.5-2.75-10.55 0-8.65 5.5-14 5.55-5.35 15.25-5.35 7.8 0 12.4 2.4m-17.85 13.05h12q-0.4-2.95-1.95-4.5-1.5-1.55-4.05-1.55-2.85 0-4.45 1.7-1.25 2.1-1.55 4.35m46.85-19.35-2.3 10.6h-10.4l-2.3-10.55v-8.9h15v8.85m-104.65 3.9q4.4 0 7.1 1.6 2.6 1.65 3.8 4.4 2.65-3.35 5.45-4.7 2.75-1.3 6.8-1.3 6 0 9.45 3.6 3.4 3.65 3.4 11.1v23.05h-15.05v-20.95q0-2.15-0.85-3.2-1.15-1.55-2.85-1.55-2.05 0-3.35 1.5-1.25 1.55-1.25 5.15v19.05h-15.05v-20.3q0-2.2-0.25-2.95-0.4-1.15-1.25-1.85-0.9-0.65-2.15-0.65-2 0-3.3 1.5-1.35 1.6-1.35 5.4v18.85h-15.05v-36.95h14.15v5.2q1.6-3.15 4.5-4.6 2.95-1.4 7.1-1.4m-33.7-2.05h-15.05v-10.7h15.05v10.7m0 39.8h-15.05v-36.95h15.05v36.95m-68.7-50.5h47.55v13.5h-15.45v37h-16.6v-37h-15.5v-13.5" fill="#fff" fill-rule="evenodd"/>
   <path d="m-20.75-129.65q-1.5 1.85-1.5 6.2 0 4 1.55 5.85 1.55 1.8 3.95 1.8 2.05 0 3.45-1.75 1.45-1.7 1.45-6.15 0-4.1-1.5-5.95-1.45-1.8-3.55-1.8-2.25 0-3.85 1.8m-2.4-7.1q1.45-3.15 3.8-4.4 3.15-1.65 6.9-1.65 7.5 0 11.55 5.7 4.1 5.7 4.1 13.95 0 9.15-4.45 14.05-4.45 4.85-11.3 4.85-3.25 0-6-1.1-2.7-1.15-3.6-3.1v16.95h-15.2v-50.5h14.2v5.25m-100.5-5.05q3.2 1.05 5.3 3.2 2.15 2.15 3.6 6.6l-14.15 1.35q-0.6-1.95-1.4-2.55-1.6-1.05-3.65-1.05-2.1 0-2.9 0.65-0.85 0.65-0.85 1.5 0 0.9 0.95 1.35 1.25 0.6 5.6 1.15 6.95 0.8 10.4 2.2 3.45 1.45 5.3 4.15 1.9 2.75 1.9 5.95 0 3.3-2 6.35-1.95 3.15-6.15 4.9-4.15 1.8-11.2 1.8-10 0-14.3-2.9-4.35-2.9-5.6-9.1l14.75-1.3q0.9 2.65 2.25 3.6 1.3 0.85 3.6 0.85 2.5 0 3.9-1.1 0.85-0.6 0.85-1.55 0-1.05-1.2-1.65-0.95-0.55-6.2-1.6-6.6-1-9.5-2.1t-4.9-3.75q-2.05-2.7-2.05-6.2 0-3.75 2.2-6.45t5.9-4q3.75-1.3 9.9-1.3 6.45 0 9.65 1m63.3-0.2h15.05v36.95h-14.15v-5.75q-1.7 3.4-4.7 5-3.05 1.55-7.45 1.55-5.95 0-9.3-3.55-3.4-3.55-3.4-10.85v-23.35h15.1v20.25q0 3.15 1.05 4.3 1.05 1.2 2.95 1.2 2.1 0 3.5-1.7 1.35-1.65 1.35-6.25v-17.8m-124.8 1.6q4.6 2.4 7 7 2.4 4.55 2.4 11.75v2.2h-27.3q0.35 2.35 1.2 3.55 2.15 2.3 5 2.3 1.85 0 3.5-0.9 0.95-0.55 2.35-2.35l14.5 1.35q-3.3 6.45-7.8 8.85-4.55 2.4-12.85 2.4-7.25 0-11.45-2.05t-6.95-6.6q-2.75-4.5-2.75-10.55 0-8.65 5.5-14 5.55-5.35 15.25-5.35 7.8 0 12.4 2.4m-17.85 13.05h12q-0.4-2.95-1.95-4.5-1.5-1.55-4.05-1.55-2.85 0-4.45 1.7-1.25 2.1-1.55 4.35m46.85-19.35-2.3 10.6h-10.4l-2.3-10.55v-8.9h15v8.85m-104.65 3.9q4.4 0 7.1 1.6 2.6 1.65 3.8 4.4 2.65-3.35 5.45-4.7 2.75-1.3 6.8-1.3 6 0 9.45 3.6 3.4 3.65 3.4 11.1v23.05h-15.05v-20.95q0-2.15-0.85-3.2-1.15-1.55-2.85-1.55-2.05 0-3.35 1.5-1.25 1.55-1.25 5.15v19.05h-15.05v-20.3q0-2.2-0.25-2.95-0.4-1.15-1.25-1.85-0.9-0.65-2.15-0.65-2 0-3.3 1.5-1.35 1.6-1.35 5.4v18.85h-15.05v-36.95h14.15v5.2q1.6-3.15 4.5-4.6 2.95-1.4 7.1-1.4m-33.7-2.05h-15.05v-10.7h15.05v10.7m0 39.8h-15.05v-36.95h15.05v36.95m-68.7-50.5h47.55v13.5h-15.45v37h-16.6v-37h-15.5v-13.5" fill="none" stroke="#fff" stroke-linecap="round" stroke-linejoin="round" stroke-width="5"/>
  </g>
  <g id="text0" transform="translate(-1.55,-25.55)">
   <use transform="matrix(.0684 0 0 .0684 0 77)" width="366.39999" height="66.050003" fill="#ff0000" xlink:href="#font_Arial_Black_T0"/>
   <use transform="matrix(.0684 0 0 .0684 50.6 77)" width="366.39999" height="66.050003" fill="#ff0000" xlink:href="#font_Arial_Black_i0"/>
   <use transform="matrix(.0684 0 0 .0684 73.95 77)" width="366.39999" height="66.050003" fill="#ff0000" xlink:href="#font_Arial_Black_m0"/>
   <use transform="matrix(.0684 0 0 .0684 144 77)" width="366.39999" height="66.050003" fill="#ff0000" xlink:href="#font_Arial_Black_e0"/>
   <use transform="matrix(.0684 0 0 .0684 190.75 77)" width="366.39999" height="66.050003" fill="#ff0000" xlink:href="#font_Arial_Black__0"/>
   <use transform="matrix(.0684 0 0 .0684 210.25 77)" width="366.39999" height="66.050003" fill="#ff0000" xlink:href="#font_Arial_Black_s0"/>
   <use transform="matrix(.0684 0 0 .0684 276.45 77)" width="366.39999" height="66.050003" fill="#ff0000" xlink:href="#font_Arial_Black_u0"/>
   <use transform="matrix(.0684 0 0 .0684 323.2 77)" width="366.39999" height="66.050003" fill="#ff0000" xlink:href="#font_Arial_Black_p0"/>
  </g>
  <g id="font_Arial_Black_T0">
   <path d="m23-738.5v197.5h226.5v541h242.5v-541h226.5v-197.5h-695.5" fill-rule="evenodd"/>
  </g>
  <g id="font_Arial_Black_i0">
   <path d="m67.5-540.5v540.5h220v-540.5h-220m0-198v156h220v-156h-220" fill-rule="evenodd"/>
  </g>
  <g id="font_Arial_Black_m0">
   <path d="m62-540.5v540.5h220.5v-275.5q0-56 19.5-79 19-22.5 48.5-22.5 18 0 31 10t18.5 27q3.5 10.5 3.5 43v297h220.5v-278.5q0-53 18.5-75.5 19-22 49-22 24.5 0 41.5 22.5 12 15.5 12 47v306.5h220.5v-337q0-109.5-50-162.5t-138-53q-59 0-99.5 19.5-41 19.5-79.5 68.5-17.5-40.5-56-64.5-39-23.5-104-23.5-60.5 0-103.5 21-42.5 21-66 67v-76h-207" fill-rule="evenodd"/>
  </g>
  <g id="font_Arial_Black_e0">
   <path d="m435-326h-175.5q4.5-33 23-63.5 23.5-25 65-25 37 0 59.5 22.5t28 66m223.5 115.5v-32.5q0-105-35-172-35.5-67-102.5-102-67.5-35.5-181.5-35.5-142 0-223 78.5t-81 204.5q0 89 40.5 155t102 96q61 30.5 167 30.5 122 0 188-35.5 66-35 114-129.5l-211.5-19.5q-21 26-35 34-24 13.5-51 13.5-41.5 0-73-34-12.5-17.5-17.5-51.5h399.5" fill-rule="evenodd"/>
  </g>
  <g id="font_Arial_Black__0">
   <path d="m41.5-738.5v130l34 154h152l33.5-155v-129h-219.5" fill-rule="evenodd"/>
  </g>
  <g id="font_Arial_Black_s0">
   <path d="m25-163.5q18 90.5 81.5 133t209.5 42.5q103 0 164-26.5 61-26 90-71.5 29-45 29-93 0-47-27.5-87t-78-61q-50.5-20.5-152-32-63.5-8-82-17-13.5-6.5-13.5-20 0-12 12-21.5t42.5-9.5q30 0 53.5 15.5 12 8.5 20.5 37l207-20q-21-65-52.5-96.5-31-31.5-78-46.5-46.5-15-141-15-90 0-144.5 19-54.5 19.5-86.5 59t-32 94.5q0 51 29.5 90t72 55q42.5 16.5 139 31 76.5 15.5 91 23 17 9 17 24.5 0 14-12.5 23-20 16-57 16-33.5 0-52.5-13-19.5-13.5-33-52.5l-215.5 19.5" fill-rule="evenodd"/>
  </g>
  <g id="font_Arial_Black_u0">
   <path d="m629 0v-540.5h-220v260.5q0 67.5-20 91.5-20 24.5-51 24.5-28 0-43-17.5-15.5-17-15.5-62.5v-296.5h-221v341.5q0 106.5 49.5 159 49.5 52 136.5 52 64 0 108.5-23 44.5-23.5 69-73v84h207" fill-rule="evenodd"/>
  </g>
  <g id="font_Arial_Black_p0">
   <path d="m282-269q0-63.5 22.5-90.5 23-26.5 56-26.5 30.5 0 52 26.5 22 26.5 22 86.5 0 65-21 90.5-20.5 25.5-50.5 25.5-35 0-58-26.5-23-27-23-85.5m-220.5 467h222v-248q13.5 29 53 45.5 40 16.5 88 16.5 100 0 165-71.5t65-205.5q0-120.5-59.5-204t-169.5-83.5q-55 0-101 24.5-34 18-55.5 64.5v-77h-207.5v738.5" fill-rule="evenodd"/>
  </g>
 </defs>
 <g transform="matrix(.83581 0 0 .83581 111.14 -48.394)" display="none">
  <path d="m195.6 65.4v65.85h-19.2l-24.65-36.15v36.15h-19.15v-65.85h19.05l24.75 36.45v-36.45h19.2m-77.7 0v65.85h-20.4v-65.85h20.4m-100.7 0 7 36.9 10.2-36.9h19.25l10.2 36.85 6.95-36.85h19.25l-14.5 65.85h-19.95l-11.55-41.45-11.55 41.45h-19.95l-14.65-65.85h19.3" fill="#f00" fill-rule="evenodd"/>
  <g fill="none" stroke-linecap="round" stroke-linejoin="round">
   <path d="m195.6 65.4v65.85h-19.2l-24.65-36.15v36.15h-19.15v-65.85h19.05l24.75 36.45v-36.45h19.2m-77.7 0v65.85h-20.4v-65.85h20.4" stroke="#000" stroke-width="15"/>
   <path d="m17.2 65.4 7 36.9 10.2-36.9h19.25l10.2 36.85 6.95-36.85h19.25l-14.5 65.85h-19.95l-11.55-41.45-11.55 41.45h-19.95l-14.65-65.85h19.3" stroke="#000" stroke-width="15"/>
   <path d="m195.6 65.4v65.85h-19.2l-24.65-36.15v36.15h-19.15v-65.85h19.05l24.75 36.45v-36.45h19.2m-77.7 0v65.85h-20.4v-65.85h20.4m-100.7 0 7 36.9 10.2-36.9h19.25l10.2 36.85 6.95-36.85h19.25l-14.5 65.85h-19.95l-11.55-41.45-11.55 41.45h-19.95l-14.65-65.85h19.3" stroke="#fff" stroke-width="5"/>
  </g>
  <path d="m195.6 65.4v65.85h-19.2l-24.65-36.15v36.15h-19.15v-65.85h19.05l24.75 36.45v-36.45h19.2m-77.7 0v65.85h-20.4v-65.85h20.4m-100.7 0 7 36.9 10.2-36.9h19.25l10.2 36.85 6.95-36.85h19.25l-14.5 65.85h-19.95l-11.55-41.45-11.55 41.45h-19.95l-14.65-65.85h19.3" fill="#0f0" fill-rule="evenodd"/>
 </g>
</svg>
