<svg version="1.1" viewBox="0 0 103 93" xmlns="http://www.w3.org/2000/svg">
 <g transform="translate(51.487 46.504)">
  <path d="m0.95-0.3 0.1-0.25-0.1 0.25m-19.15 33.5q-7.55-3.9-7.15-10.4-6.4-7.75-24.35-16.05 2.65-15.9 27.15-3.95-4.25-12.1-9.9-23.75-5.7-11.7 4.05-16.15 9.8-4.45 23 30.6-7.75-37.05 3.55-38.35 11.25-1.3 13.3 12.55 2 13.85 0.65 25.35 11.65-25.05 21.85-20.5t-7.75 27.4q20.35-10.55 23.25-0.45 2.85 10.1-23.25 18.45 0.4 9.85-9.25 15.2l-2.25 1.15q-11.95 5.35-25.95 1.55-4-1.1-6.95-2.65 2.95 1.55 6.95 2.65 14 3.8 25.95-1.55l2.25-1.15q1.2 1.45 1.2 3.1 0 3.6-5.45 6.15-5.55 2.55-13.3 2.55-7.8 0-13.3-2.55t-5.5-6.15q0-1.65 1.2-3.05m-4.85-18.5 0.1-0.25-0.1 0.25m10.5-12 0.1-0.25-0.1 0.25m33.7 7.25 0.1-0.25-0.1 0.25m-7.7-5.5 0.1-0.25-0.1 0.25" fill="#fff" fill-rule="evenodd"/>
  <path d="m1.05-0.55-0.1 0.25m12.6 4.5-0.1 0.25m7.8 5.25-0.1 0.25m-33.6-7.5-0.1 0.25m-10.4 11.75-0.1 0.25" fill="none" stroke="#6cf" stroke-linecap="round" stroke-linejoin="round" stroke-width="2"/>
  <path d="m16.95 33.15q9.65-5.35 9.25-15.2 26.1-8.35 23.25-18.45-2.9-10.1-23.25 0.45 17.95-22.85 7.75-27.4t-21.85 20.5q1.35-11.5-0.65-25.35-2.05-13.85-13.3-12.55-11.3 1.3-3.55 38.35-13.2-35.05-23-30.6-9.75 4.45-4.05 16.15 5.65 11.65 9.9 23.75-24.5-11.95-27.15 3.95 17.95 8.3 24.35 16.05-0.4 6.5 7.15 10.4 2.95 1.55 6.95 2.65 14 3.8 25.95-1.55l2.25-1.15q1.2 1.45 1.2 3.1 0 3.6-5.45 6.15-5.55 2.55-13.3 2.55-7.8 0-13.3-2.55t-5.5-6.15q0-1.65 1.2-3.05" fill="none" stroke="#6cf" stroke-linecap="round" stroke-linejoin="round" stroke-width="2"/>
 </g>
 <g transform="translate(51.485 52.254)" display="none">
  <path d="m16.7-8.2 0.1-0.25-0.1 0.25m-12.65-6.15 0.1-0.25-0.1 0.25m-6.25-16.85q2.9-5.15 7.35-4.8 7.65 0.55 11.1 9.15 12.1-3.6 14.15 10.25 8.95 2.6 7.85 12.05-0.45 4-3.35 6.7 0.55 13.5-12.65 20.8 1.65 2 1.6 4.35 0 4.9-7.5 8.4-7.55 3.45-18.2 3.5-10.65-0.05-18.2-3.5-7.55-3.5-7.55-8.4 0-2.3 1.6-4.25-10.25-5.35-11.85-14.75-2.2-13.2 5.95-26.85v-0.05q5.15-18.05 15.35-20.4 6.7-1.55 9.3 6.5 1.75 0.9 3.1 2.05l1.95-0.75m-3.5 0.6q1.05 0.8 2.2 0.6-1.15 0.2-2.2-0.6m-13.4 16.5 0.1-0.25-0.1 0.25m-6.9 37.15q4.1 2.15 9.55 3.6 19.25 5.25 35.6-2.1l3.1-1.6-3.1 1.6q-16.35 7.35-35.6 2.1-5.45-1.45-9.55-3.6m49.75-21.25 0.1-0.25-0.1 0.25m-6.4 0-0.55 0.15 0.45 0.1 0.1-0.25" fill="#fff" fill-rule="evenodd"/>
  <path d="m-3.5-30q-1.15 0.2-2.2-0.6" fill="none" stroke="#6cf" stroke-linecap="round" stroke-linejoin="round" stroke-width="4"/>
  <path d="m4.15-14.6-0.1 0.25m12.75 5.9-0.1 0.25m-35.7-6.15-0.1 0.25m42.95 15.65-0.1 0.25" fill="none" stroke="#6cf" stroke-linecap="round" stroke-linejoin="round" stroke-width="2"/>
  <path d="m-2.2-31.2q2.9-5.15 7.35-4.8 7.65 0.55 11.1 9.15 12.1-3.6 14.15 10.25 8.95 2.6 7.85 12.05-0.45 4-3.35 6.7 0.55 13.5-12.65 20.8 1.65 2 1.6 4.35 0 4.9-7.5 8.4-7.55 3.45-18.2 3.5-10.65-0.05-18.2-3.5-7.55-3.5-7.55-8.4 0-2.3 1.6-4.25-10.25-5.35-11.85-14.75-2.2-13.2 5.95-26.85v-0.05q5.15-18.05 15.35-20.4 6.7-1.55 9.3 6.5m29.5 55.45-3.1 1.6q-16.35 7.35-35.6 2.1-5.45-1.45-9.55-3.6" fill="none" stroke="#6cf" stroke-linecap="round" stroke-linejoin="round" stroke-width="2"/>
 </g>
</svg>
