<svg version="1.1" viewBox="0 0 103 93" xmlns="http://www.w3.org/2000/svg">
 <g transform="translate(51.485 52.254)">
  <path d="m16.7-8.2 0.1-0.25-0.1 0.25m-12.65-6.15 0.1-0.25-0.1 0.25m-6.25-16.85q2.9-5.15 7.35-4.8 7.65 0.55 11.1 9.15 12.1-3.6 14.15 10.25 8.95 2.6 7.85 12.05-0.45 4-3.35 6.7 0.55 13.5-12.65 20.8 1.65 2 1.6 4.35 0 4.9-7.5 8.4-7.55 3.45-18.2 3.5-10.65-0.05-18.2-3.5-7.55-3.5-7.55-8.4 0-2.3 1.6-4.25-10.25-5.35-11.85-14.75-2.2-13.2 5.95-26.85v-0.05q5.15-18.05 15.35-20.4 6.7-1.55 9.3 6.5 1.75 0.9 3.1 2.05l1.95-0.75m-3.5 0.6q1.05 0.8 2.2 0.6-1.15 0.2-2.2-0.6m-13.4 16.5 0.1-0.25-0.1 0.25m-6.9 37.15q4.1 2.15 9.55 3.6 19.25 5.25 35.6-2.1l3.1-1.6-3.1 1.6q-16.35 7.35-35.6 2.1-5.45-1.45-9.55-3.6m49.75-21.25 0.1-0.25-0.1 0.25m-6.4 0-0.55 0.15 0.45 0.1 0.1-0.25" fill="#fff" fill-rule="evenodd"/>
  <path d="m-3.5-30q-1.15 0.2-2.2-0.6" fill="none" stroke="#6cf" stroke-linecap="round" stroke-linejoin="round" stroke-width="4"/>
  <path d="m4.15-14.6-0.1 0.25m12.75 5.9-0.1 0.25m-35.7-6.15-0.1 0.25m42.95 15.65-0.1 0.25" fill="none" stroke="#6cf" stroke-linecap="round" stroke-linejoin="round" stroke-width="2"/>
  <path d="m-2.2-31.2q2.9-5.15 7.35-4.8 7.65 0.55 11.1 9.15 12.1-3.6 14.15 10.25 8.95 2.6 7.85 12.05-0.45 4-3.35 6.7 0.55 13.5-12.65 20.8 1.65 2 1.6 4.35 0 4.9-7.5 8.4-7.55 3.45-18.2 3.5-10.65-0.05-18.2-3.5-7.55-3.5-7.55-8.4 0-2.3 1.6-4.25-10.25-5.35-11.85-14.75-2.2-13.2 5.95-26.85v-0.05q5.15-18.05 15.35-20.4 6.7-1.55 9.3 6.5m29.5 55.45-3.1 1.6q-16.35 7.35-35.6 2.1-5.45-1.45-9.55-3.6" fill="none" stroke="#6cf" stroke-linecap="round" stroke-linejoin="round" stroke-width="2"/>
 </g>
</svg>
