<svg version="1.1" viewBox="0 0 70 43" xmlns="http://www.w3.org/2000/svg">
 <g transform="translate(34.975,21.475)">
  <path d="m-24.15 14.2q-9.95-5.85-9.95-14.2 0-8.3 9.95-14.25 10.05-5.85 24.15-5.85 14.15 0 24.1 5.85 10.05 5.95 10.05 14.25 0 8.35-10.05 14.2-9.95 5.95-24.1 5.95-14.1 0-24.15-5.95" fill="#6b1500" fill-rule="evenodd"/>
  <path d="m-24.15 14.2q-9.95-5.85-9.95-14.2 0-8.3 9.95-14.25 10.05-5.85 24.15-5.85 14.15 0 24.1 5.85 10.05 5.95 10.05 14.25 0 8.35-10.05 14.2-9.95 5.95-24.1 5.95-14.1 0-24.15-5.95z" fill="none" stroke="#ae4600" stroke-linecap="round" stroke-linejoin="round"/>
  <path d="m30.55-0.2q0 7.45-9 12.7-8.9 5.3-21.55 5.3-12.7 0-21.65-5.3-8.95-5.25-8.95-12.7l0.15-2.1q1.1 6.1 8.8 10.65 8.95 5.3 21.65 5.3 12.65 0 21.55-5.3 7.7-4.55 8.8-10.65l0.2 2.1" fill="#900" fill-rule="evenodd"/>
  <path d="m15.05 0.7q-6.3 2.65-15.3 2.65-8.95 0-15.3-2.65-6.3-2.55-6.3-6.25 0-3.75 6.3-6.35 6.35-2.55 15.3-2.55 9 0 15.3 2.55 6.3 2.6 6.3 6.35 0 3.7-6.3 6.25" fill="#5e1300" fill-rule="evenodd"/>
 </g>
</svg>
