<svg version="1.1" viewBox="0 0 70 43" xmlns="http://www.w3.org/2000/svg">
 <g transform="translate(34.975 35.668)">
  <path d="m-24.15-4.1q-9.95 1.7-9.95 4.1t9.95 4.15q10.05 1.7 24.15 1.7 14.15 0 24.1-1.7 10.05-1.75 10.05-4.15t-10.05-4.1q-9.95-1.7-24.1-1.7-14.1 0-24.15 1.7" fill="#6b1500" fill-rule="evenodd"/>
  <path d="m-24.15-4.1q-9.95 1.7-9.95 4.1t9.95 4.15q10.05 1.7 24.15 1.7 14.15 0 24.1-1.7 10.05-1.75 10.05-4.15t-10.05-4.1q-9.95-1.7-24.1-1.7-14.1 0-24.15 1.7z" fill="none" stroke="#ae4600" stroke-linecap="round" stroke-linejoin="round"/>
  <path d="m21.55 2.85-21.55 1.15-21.65-1.15q-8.95-1.2-8.95-2.8l0.15-0.5q1.1 1.35 8.8 2.35l21.65 1.2 21.55-1.2q7.7-1 8.8-2.35l0.2 0.5q0 1.6-9 2.8" fill="#fff" fill-opacity=".34118" fill-rule="evenodd"/>
  <path d="m14.1 0-12.6 0.8-12.65-0.8q-5.2-0.75-5.2-1.9 0-1.1 5.2-1.9l12.65-0.75 12.6 0.75q5.2 0.8 5.2 1.9 0 1.15-5.2 1.9" fill="#fff" fill-opacity=".10196" fill-rule="evenodd"/>
 </g>
</svg>
