<?xml version="1.0" encoding="UTF-8" standalone="no"?>
<svg xmlns:xlink="http://www.w3.org/1999/xlink" height="982.6px" width="1391.9px" xmlns="http://www.w3.org/2000/svg">
  <g transform="matrix(1.0, 0.0, 0.0, 1.0, 412.1, 128.35)">
    <path d="M-15.55 -121.3 L87.15 -121.3 Q205.75 472.15 977.95 246.45 L979.8 336.65 972.3 336.6 972.3 372.9 244.25 372.9 Q-34.95 219.9 -15.55 -121.3" fill="#bee449" fill-rule="evenodd" stroke="none"/>
    <path d="M87.15 -121.3 L972.3 -121.3 972.3 -34.45 977.95 246.45 Q205.75 472.15 87.15 -121.3" fill="#ceef69" fill-rule="evenodd" stroke="none"/>
    <path d="M586.05 462.55 L584.55 461.8 585.05 460.85 586.05 462.55 M852.85 463.65 L853.05 464.05 852.6 464.25 852.85 463.65 M718.4 447.45 L717.15 448.45 718.2 447.2 718.4 447.45 M-89.5 444.9 L-90.95 445.8 -89.9 444.35 -89.5 444.9" fill="#fcb8d1" fill-rule="evenodd" stroke="none"/>
    <path d="M972.3 372.9 L972.3 425.3 970.95 425.3 Q951.9 412.95 927.75 412.95 915.3 412.95 904.25 416.25 885.4 421.75 870.45 436.65 L868.75 438.5 865.85 441.65 864.8 442.9 862.3 446.1 861.25 447.5 Q859.35 450.15 857.75 452.9 L857.4 453.5 Q854.8 457.85 852.85 462.5 847.1 450.95 837.25 441.1 813.55 417.4 780.05 417.4 767.65 417.4 756.6 420.65 737.75 426.2 722.85 441.1 L721.05 442.9 718.2 446.1 713.55 441.1 Q689.9 417.4 656.4 417.4 644.0 417.4 632.9 420.65 614.1 426.2 599.15 441.1 L597.4 442.9 593.5 447.3 591.0 450.5 589.9 451.95 Q588.0 454.55 586.4 457.35 L584.45 458.75 Q579.55 451.05 572.7 444.15 549.05 420.5 515.55 420.55 503.15 420.55 492.05 423.8 473.25 429.3 458.3 444.15 L456.55 446.05 452.65 450.45 450.15 453.65 449.05 455.05 Q447.2 457.7 445.6 460.45 442.6 465.4 440.45 470.65 434.6 454.75 421.6 441.8 397.95 418.15 364.45 418.15 352.0 418.15 340.95 421.4 322.15 426.9 307.2 441.8 L305.45 443.65 301.55 448.05 299.05 451.25 297.95 452.7 Q296.1 455.3 294.5 458.05 289.05 448.55 280.75 440.25 257.1 416.6 223.6 416.6 211.2 416.6 200.15 419.85 181.3 425.35 166.35 440.25 L164.6 442.1 160.7 446.5 Q155.9 439.0 149.2 432.3 125.55 408.6 92.05 408.65 79.6 408.6 68.55 411.85 49.75 417.4 34.8 432.3 L32.7 433.75 Q9.0 410.1 -24.5 410.1 -36.9 410.1 -48.0 413.35 -66.8 418.85 -81.7 433.75 -86.25 438.3 -89.9 443.2 -93.5 438.5 -97.85 434.2 -121.5 410.5 -154.95 410.5 -167.4 410.5 -178.45 413.75 -197.3 419.3 -212.2 434.2 -217.45 439.35 -221.45 445.05 -226.9 435.5 -235.2 427.2 -243.0 419.4 -251.8 414.2 -269.85 403.5 -292.35 403.55 -301.9 403.5 -310.6 405.4 L-315.85 406.75 Q-329.8 410.85 -341.65 420.1 L-341.65 -121.3 -15.55 -121.3 Q-34.95 219.9 244.25 372.9 L972.3 372.9 M-3.2 265.0 L-4.35 265.0 -4.35 265.8 -3.2 265.0" fill="#afdf20" fill-rule="evenodd" stroke="none"/>
    <path d="M356.2 606.7 L355.25 606.75 355.2 605.7 356.2 606.7 M355.2 605.7 L328.95 579.85 443.2 579.85 474.65 605.7 355.2 605.7 M475.5 606.4 L474.65 605.7 601.4 605.7 614.8 615.1 Q546.85 608.25 475.5 606.4 M601.4 605.7 L564.5 579.85 683.1 579.85 728.7 605.7 601.4 605.7 M555.9 672.7 L557.25 673.0 556.3 673.0 555.9 672.7" fill="#b5e07f" fill-rule="evenodd" stroke="none"/>
    <path d="M356.2 606.7 L355.2 605.7 474.65 605.7 443.2 579.85 564.5 579.85 601.4 605.7 474.65 605.7 475.5 606.4 Q417.0 604.9 356.2 606.7 M555.9 673.0 L555.9 672.7 556.3 673.0 557.25 673.0 556.85 673.45 556.3 673.0 555.9 673.0 M728.7 605.7 L683.1 579.85 816.8 579.85 816.8 605.7 728.7 605.7" fill="#2a9b2e" fill-rule="evenodd" stroke="none"/>
    <path d="M6.05 579.85 L16.9 605.7 -65.9 605.7 -69.9 579.85 6.05 579.85 M-349.55 605.7 L-65.9 605.7 -56.45 666.65 -77.75 673.0 -349.55 673.0 -349.55 605.7 M133.15 605.7 L118.15 579.85 227.7 579.85 247.5 605.7 133.15 605.7 M263.9 627.2 L247.5 605.7 355.2 605.7 355.25 606.75 356.2 606.7 389.7 639.7 Q326.25 630.6 263.9 627.2 M475.5 606.4 Q546.85 608.25 614.8 615.1 L697.35 673.0 557.25 673.0 555.9 672.7 475.5 606.4 M742.6 704.7 L697.35 673.0 816.8 673.0 816.8 704.7 742.6 704.7" fill="#fbbc8e" fill-rule="evenodd" stroke="none"/>
    <path d="M-56.45 666.65 Q-11.9 653.65 32.55 643.1 L45.1 673.0 -55.45 673.0 -56.45 666.65 M58.4 704.7 L45.1 673.0 172.1 673.0 190.45 704.7 58.4 704.7 M323.1 704.7 L298.85 673.0 172.1 673.0 144.8 625.9 Q203.85 623.9 263.9 627.2 L298.85 673.0 423.55 673.0 455.7 704.7 323.1 704.7 M-50.55 704.7 L-349.55 704.7 -349.55 673.0 -77.75 673.0 -55.45 673.0 -50.55 704.7 M555.9 673.0 L423.55 673.0 389.7 639.7 Q471.9 651.45 555.9 672.7 L555.9 673.0 M556.85 673.45 L557.25 673.0 Q611.85 686.85 667.25 704.7 L594.8 704.7 556.85 673.45" fill="#fbac5e" fill-rule="evenodd" stroke="none"/>
    <path d="M32.55 643.1 L16.9 605.7 133.15 605.7 144.8 625.9 172.1 673.0 298.85 673.0 323.1 704.7 190.45 704.7 172.1 673.0 45.1 673.0 58.4 704.7 -50.55 704.7 -55.45 673.0 -77.75 673.0 -56.45 666.65 -55.45 673.0 45.1 673.0 32.55 643.1 M263.9 627.2 Q326.25 630.6 389.7 639.7 L423.55 673.0 555.9 673.0 556.3 673.0 556.85 673.45 594.8 704.7 455.7 704.7 423.55 673.0 298.85 673.0 263.9 627.2" fill="#fde0c6" fill-rule="evenodd" stroke="none"/>
    <path d="M-69.9 579.85 L-65.9 605.7 16.9 605.7 6.05 579.85 118.15 579.85 133.15 605.7 16.9 605.7 32.55 643.1 Q-11.9 653.65 -56.45 666.65 L-65.9 605.7 -349.55 605.7 -349.55 579.85 -69.9 579.85 M144.8 625.9 L133.15 605.7 247.5 605.7 263.9 627.2 Q203.85 623.9 144.8 625.9 M389.7 639.7 L356.2 606.7 Q417.0 604.9 475.5 606.4 L555.9 672.7 Q471.9 651.45 389.7 639.7 M614.8 615.1 L601.4 605.7 728.7 605.7 816.8 655.75 816.8 673.0 697.35 673.0 742.6 704.7 667.25 704.7 Q611.85 686.85 557.25 673.0 L697.35 673.0 614.8 615.1" fill="#e37c40" fill-rule="evenodd" stroke="none"/>
    <path d="M-349.55 529.45 L-20.0 529.45 816.8 529.45 816.8 579.85 683.1 579.85 564.5 579.85 443.2 579.85 328.95 579.85 227.7 579.85 118.15 579.85 6.05 579.85 -69.9 579.85 -349.55 579.85 -349.55 529.45" fill="#b3316c" fill-rule="evenodd" stroke="none"/>
    <path d="M972.3 425.3 L972.3 426.2 970.95 425.3 972.3 425.3" fill="#fef050" fill-rule="evenodd" stroke="none"/>
    <path d="M-20.0 529.45 L32.8 526.55 816.8 526.55 816.8 529.45 -20.0 529.45" fill="#eec94d" fill-rule="evenodd" stroke="none"/>
    <path d="M816.8 655.75 L728.7 605.7 816.8 605.7 816.8 655.75" fill="#fbb888" fill-rule="evenodd" stroke="none"/>
    <path d="M247.5 605.7 L227.7 579.85 328.95 579.85 355.2 605.7 247.5 605.7" fill="#f98b20" fill-rule="evenodd" stroke="none"/>
    <path d="M586.4 457.35 L586.05 457.95 585.05 459.7 584.45 458.75 586.4 457.35 M34.8 432.3 L34.05 433.1 33.05 434.1 33.0 434.1 32.7 433.75 34.8 432.3" fill="url(#gradient0)" fill-rule="evenodd" stroke="none"/>
    <path d="M32.8 526.55 L-20.0 529.45 -349.55 529.45 -349.55 526.55 32.8 526.55" fill="url(#gradient1)" fill-rule="evenodd" stroke="none"/>
    <path d="M87.15 -121.3 L74.65 -126.5" fill="none" stroke="#ffffff" stroke-linecap="round" stroke-linejoin="round" stroke-width="3.75"/>
    <path d="M6.05 579.85 L-69.9 579.85 -349.55 579.85 M118.15 579.85 L6.05 579.85 M227.7 579.85 L118.15 579.85 M328.95 579.85 L227.7 579.85" fill="none" stroke="#962960" stroke-linecap="round" stroke-linejoin="round" stroke-width="1.0"/>
    <path d="M-191.6 393.7 Q-185.95 400.4 -191.35 408.95 -183.4 414.35 -184.15 420.6 L-184.35 422.35 -184.35 445.4 Q-186.25 438.75 -190.95 433.25 -198.1 424.8 -208.5 422.75 L-212.2 422.25 -215.65 422.1 Q-230.95 422.1 -243.15 433.25 L-243.6 433.65 Q-255.4 444.75 -257.3 460.3 L-257.65 466.7 Q-259.2 462.35 -262.7 458.65 -272.15 448.55 -280.2 445.35 -285.7 443.3 -292.3 443.3 -307.55 443.3 -319.8 454.45 L-324.55 459.45 Q-332.35 469.05 -333.9 481.45 L-334.15 484.4 -337.7 480.5 Q-353.05 464.8 -374.8 464.8 -393.15 464.8 -407.0 475.95 -407.5 476.3 -408.65 476.7 L-408.65 437.05 -407.75 436.3 Q-393.85 425.15 -375.55 425.15 -353.8 425.15 -338.45 440.8 L-336.2 443.3 -334.9 444.75 -334.65 441.8 Q-333.1 429.4 -325.3 419.8 -323.15 417.15 -320.55 414.8 -308.3 403.6 -293.0 403.6 -286.45 403.6 -280.95 405.65 -272.9 408.85 -263.45 418.95 -259.95 422.65 -258.35 427.0 -258.45 423.9 -258.05 420.6 -256.15 405.1 -244.3 394.0 L-243.9 393.6 Q-231.7 382.45 -216.4 382.45 L-212.95 382.6 -209.25 383.1 Q-198.85 385.15 -191.7 393.6 L-191.6 393.7 M-184.35 462.0 L-184.35 705.1 -407.75 852.4 -407.75 521.4 -408.65 520.65 -408.65 476.7 Q-407.5 476.3 -407.0 475.95 -393.15 464.8 -374.8 464.8 -353.05 464.8 -337.7 480.5 L-334.15 484.4 -333.9 481.45 Q-332.35 469.05 -324.55 459.45 L-319.8 454.45 Q-307.55 443.3 -292.3 443.3 -285.7 443.3 -280.2 445.35 -272.15 448.55 -262.7 458.65 -259.2 462.35 -257.65 466.7 L-257.3 460.3 Q-255.4 444.75 -243.6 433.65 L-243.15 433.25 Q-230.95 422.1 -215.65 422.1 L-212.2 422.25 -208.5 422.75 Q-198.1 424.8 -190.95 433.25 -186.25 438.75 -184.35 445.4 L-184.35 462.0" fill="#009900" fill-rule="evenodd" stroke="none"/>
    <path d="M-336.2 443.3 L-334.65 441.8 -334.9 444.75 -336.2 443.3" fill="#d7fd62" fill-rule="evenodd" stroke="none"/>
    <path d="M-407.75 -115.5 L-407.75 -123.45 -412.1 -127.0 -191.35 -124.7 -191.6 393.7 -191.7 393.6 Q-198.85 385.15 -209.25 383.1 L-212.95 382.6 Q-220.85 13.1 -407.25 -114.15 L-407.75 -115.5" fill="#86b004" fill-rule="evenodd" stroke="none"/>
    <path d="M-407.75 436.3 L-407.75 -115.5 -407.25 -114.15 Q-220.85 13.1 -212.95 382.6 L-216.4 382.45 Q-231.7 382.45 -243.9 393.6 L-244.3 394.0 Q-256.15 405.1 -258.05 420.6 -258.45 423.9 -258.35 427.0 -259.95 422.65 -263.45 418.95 -272.9 408.85 -280.95 405.65 -286.45 403.6 -293.0 403.6 -308.3 403.6 -320.55 414.8 -323.15 417.15 -325.3 419.8 -333.1 429.4 -334.65 441.8 L-336.2 443.3 -338.45 440.8 Q-353.8 425.15 -375.55 425.15 -393.85 425.15 -407.75 436.3" fill="#9ed004" fill-rule="evenodd" stroke="none"/>
    <path d="M-184.35 705.1 L-407.75 852.4" fill="none" stroke="#99cc00" stroke-linecap="round" stroke-linejoin="round" stroke-width="3.75"/>
    <path d="M-184.35 445.4 L-183.65 448.6 Q-182.65 454.05 -183.4 460.3 -183.45 461.2 -184.35 462.0 M-184.35 445.4 Q-186.25 438.75 -190.95 433.25 -198.1 424.8 -208.5 422.75 L-212.2 422.25 -215.65 422.1 Q-230.95 422.1 -243.15 433.25 L-243.6 433.65 Q-255.4 444.75 -257.3 460.3 L-257.65 466.7 Q-259.2 462.35 -262.7 458.65 -272.15 448.55 -280.2 445.35 -285.7 443.3 -292.3 443.3 -307.55 443.3 -319.8 454.45 L-324.55 459.45 Q-332.35 469.05 -333.9 481.45 L-334.15 484.4 -337.7 480.5 Q-353.05 464.8 -374.8 464.8 -393.15 464.8 -407.0 475.95 -407.5 476.3 -408.65 476.7" fill="none" stroke="#006600" stroke-linecap="round" stroke-linejoin="round" stroke-width="3.75"/>
    <path d="M289.0 -62.6 L241.25 122.5 Q240.95 123.6 240.1 124.15 L238.15 124.5 237.9 124.5 237.5 124.5 237.4 124.5 237.25 124.5 237.1 124.5 Q102.0 110.05 -74.25 128.5 L-74.65 128.5 -75.55 128.6 -75.65 128.6 Q-76.65 128.65 -77.45 128.1 -78.25 127.5 -78.5 126.55 L-124.2 -60.8 -124.35 -61.2 Q-124.6 -62.0 -124.35 -62.85 -124.1 -63.65 -123.35 -64.15 L-122.2 -64.65 -122.15 -64.65 Q93.45 -96.65 287.0 -66.85 288.1 -66.7 288.75 -65.8 289.4 -64.9 289.25 -63.8 L289.25 -63.75 289.05 -63.1 289.05 -62.85 289.0 -62.6 M268.3 39.25 L268.45 39.25 268.7 39.4 268.3 39.25 M88.5 44.6 L88.7 44.6 88.85 44.65 88.85 43.35 Q87.95 43.65 87.05 44.1 L88.05 44.5 88.1 44.35 88.1 44.5 88.2 44.6 88.05 44.6 88.05 44.5 87.6 45.3 88.85 44.8 88.6 44.65 88.5 44.65 88.45 44.6 88.5 44.6" fill="#000000" fill-opacity="0.2509804" fill-rule="evenodd" stroke="none"/>
    <path d="M290.15 -66.7 L290.05 -66.8 Q289.0 -68.2 287.25 -68.4 93.7 -98.3 -121.9 -66.3 L-122.2 -66.3 -122.3 -66.3 -122.35 -66.3 Q-123.45 -66.1 -124.35 -65.45 -125.5 -64.65 -125.9 -63.35 -126.3 -62.0 -125.9 -60.6 L-125.75 -60.3 -80.15 126.95 -80.15 127.05 Q-79.75 128.6 -78.35 129.5 L-78.45 129.4 Q-77.05 130.4 -75.4 130.25 L-75.4 130.15 -74.65 130.15 -74.35 130.15 -74.1 130.15 Q102.0 111.65 236.9 126.15 L237.15 126.15 237.25 126.15 237.4 126.15 237.5 126.15 237.8 126.15 237.9 126.15 Q239.55 126.35 240.95 125.55 242.4 124.55 242.85 123.0 L242.85 122.9 290.55 -62.0 290.7 -62.75 290.7 -62.85 290.8 -63.35 290.85 -63.5 Q291.1 -65.3 290.15 -66.7 M291.55 -62.75 L291.3 -61.7 243.65 123.15 Q243.05 125.15 241.45 126.2 L241.35 126.2 Q239.7 127.2 237.9 126.95 L237.65 126.85 237.65 126.95 237.5 126.95 237.4 126.95 237.25 126.95 237.15 126.95 236.85 126.95 Q102.0 112.5 -74.0 130.95 L-74.35 130.95 -74.65 130.95 -75.25 130.95 -75.3 130.95 Q-77.3 131.2 -78.85 130.05 L-78.75 130.15 Q-80.4 129.1 -80.9 127.2 L-81.0 127.1 -126.65 -60.3 -126.65 -60.35 Q-127.2 -62.0 -126.65 -63.6 -126.15 -65.2 -124.85 -66.1 -123.75 -66.95 -122.45 -67.1 93.45 -99.15 287.4 -69.25 289.45 -69.0 290.8 -67.2 L290.7 -67.25 Q292.0 -65.55 291.7 -63.4 L291.6 -63.1 291.55 -62.85 291.55 -62.75" fill="#000000" fill-opacity="0.0627451" fill-rule="evenodd" stroke="none"/>
    <path d="M290.15 -66.7 Q291.1 -65.3 290.85 -63.5 L290.8 -63.35 290.7 -62.85 290.7 -62.75 290.55 -62.0 242.85 122.9 242.85 123.0 Q242.4 124.55 240.95 125.55 239.55 126.35 237.9 126.15 L237.8 126.15 237.5 126.15 237.4 126.15 237.25 126.15 237.15 126.15 236.9 126.15 Q102.0 111.65 -74.1 130.15 L-74.35 130.15 -74.65 130.15 -75.4 130.15 -75.4 130.25 Q-77.05 130.4 -78.45 129.4 L-78.35 129.5 Q-79.75 128.6 -80.15 127.05 L-80.15 126.95 -125.75 -60.3 -125.9 -60.6 Q-126.3 -62.0 -125.9 -63.35 -125.5 -64.65 -124.35 -65.45 -123.45 -66.1 -122.35 -66.3 L-122.3 -66.3 -122.2 -66.3 -121.9 -66.3 Q93.7 -98.3 287.25 -68.4 289.0 -68.2 290.05 -66.8 L290.15 -66.7 M289.45 -66.2 L289.4 -66.3 Q288.55 -67.45 287.15 -67.7 93.45 -97.5 -122.2 -65.45 L-122.55 -65.4 Q-123.25 -65.3 -123.85 -64.8 -124.75 -64.15 -125.1 -63.1 -125.5 -62.0 -125.1 -60.95 L-125.1 -60.85 -125.0 -60.55 -79.35 126.7 -79.35 126.8 Q-79.0 128.0 -77.85 128.75 L-77.95 128.75 Q-76.9 129.5 -75.5 129.4 L-74.65 129.35 -74.35 129.35 -74.15 129.35 Q102.0 110.85 237.0 125.3 L237.15 125.3 237.25 125.3 237.4 125.3 237.5 125.3 237.9 125.3 238.0 125.3 Q239.3 125.55 240.55 124.8 241.7 124.05 242.1 122.75 L289.8 -62.35 289.7 -62.25 289.9 -62.85 289.9 -62.9 290.05 -63.5 290.05 -63.65 Q290.3 -65.05 289.45 -66.2" fill="#000000" fill-opacity="0.1254902" fill-rule="evenodd" stroke="none"/>
    <path d="M289.45 -66.2 Q290.3 -65.05 290.05 -63.65 L290.05 -63.5 289.9 -62.9 289.9 -62.85 289.7 -62.25 289.8 -62.35 242.1 122.75 Q241.7 124.05 240.55 124.8 239.3 125.55 238.0 125.3 L237.9 125.3 237.5 125.3 237.4 125.3 237.25 125.3 237.15 125.3 237.0 125.3 Q102.0 110.85 -74.15 129.35 L-74.35 129.35 -74.65 129.35 -75.5 129.4 Q-76.9 129.5 -77.95 128.75 L-77.85 128.75 Q-79.0 128.0 -79.35 126.8 L-79.35 126.7 -125.0 -60.55 -125.1 -60.85 -125.1 -60.95 Q-125.5 -62.0 -125.1 -63.1 -124.75 -64.15 -123.85 -64.8 -123.25 -65.3 -122.55 -65.4 L-122.2 -65.45 Q93.45 -97.5 287.15 -67.7 288.55 -67.45 289.4 -66.3 L289.45 -66.2 M289.0 -62.6 L289.05 -62.85 289.05 -63.1 289.25 -63.75 289.25 -63.8 Q289.4 -64.9 288.75 -65.8 288.1 -66.7 287.0 -66.85 93.45 -96.65 -122.15 -64.65 L-122.2 -64.65 -123.35 -64.15 Q-124.1 -63.65 -124.35 -62.85 -124.6 -62.0 -124.35 -61.2 L-124.2 -60.8 -78.5 126.55 Q-78.25 127.5 -77.45 128.1 -76.65 128.65 -75.65 128.6 L-75.55 128.6 -74.65 128.5 -74.25 128.5 Q102.0 110.05 237.1 124.5 L237.25 124.5 237.4 124.5 237.5 124.5 237.9 124.5 238.15 124.5 240.1 124.15 Q240.95 123.6 241.25 122.5 L289.0 -62.6 M88.7 44.6 L88.85 44.35 88.5 44.15 88.5 44.6 88.45 44.6 88.5 44.65 88.5 44.9 88.6 44.65 88.85 44.8 87.6 45.3 88.05 44.5 88.05 44.6 88.2 44.6 88.1 44.5 88.1 44.35 88.05 44.5 87.05 44.1 Q87.95 43.65 88.85 43.35 L88.85 44.65 88.7 44.6" fill="#000000" fill-opacity="0.1882353" fill-rule="evenodd" stroke="none"/>
    <path d="M-83.7 -2.65 Q-117.4 -52.95 -64.15 -57.5 112.75 -81.95 278.05 -64.3 L254.55 67.75 213.8 48.6 Q173.85 35.65 141.65 30.2 L133.65 29.3 126.6 29.0 Q116.25 29.0 106.4 31.6 96.2 34.15 86.55 39.5 83.25 38.35 79.55 38.35 71.9 38.35 66.5 43.1 L64.95 44.75 63.95 43.55 Q58.3 36.95 50.25 36.95 42.2 36.95 36.5 43.55 33.05 47.45 31.75 52.5 28.25 50.75 23.95 50.75 16.75 50.75 11.55 55.6 8.85 58.15 7.6 61.25 4.1 57.8 0.0 55.85 L0.0 54.45 Q0.0 45.9 -6.35 39.85 -12.6 33.75 -21.45 33.75 -27.8 33.75 -32.8 36.85 -31.65 32.7 -31.65 28.1 -31.65 15.95 -39.6 7.3 -47.5 -1.25 -58.65 -1.25 L-83.7 -2.65" fill="url(#gradient2)" fill-rule="evenodd" stroke="none"/>
    <path d="M-83.7 -2.65 L-58.65 -1.25 Q-47.5 -1.25 -39.6 7.3 -31.65 15.95 -31.65 28.1 -31.65 32.7 -32.8 36.85 -27.8 33.75 -21.45 33.75 -12.6 33.75 -6.35 39.85 0.0 45.9 0.0 54.45 L0.0 55.85 Q4.1 57.8 7.6 61.25 8.85 58.15 11.55 55.6 16.75 50.75 23.95 50.75 28.25 50.75 31.75 52.5 33.05 47.45 36.5 43.55 42.2 36.95 50.25 36.95 58.3 36.95 63.95 43.55 L64.95 44.75 66.5 43.1 Q71.9 38.35 79.55 38.35 83.25 38.35 86.55 39.5 L86.2 39.65 Q83.15 41.3 80.3 43.3 L67.5 51.1 60.4 55.1 60.25 55.2 Q50.55 60.45 40.45 65.05 L31.75 68.8 19.45 73.6 14.45 75.4 9.25 77.35 Q-4.4 82.45 -20.7 89.1 L-35.75 95.2 Q-48.55 100.35 -62.7 106.35 L-64.15 95.5 -83.7 -2.65 M7.6 61.25 L7.6 61.35 7.7 61.35 7.6 61.25 M-36.5 69.15 L-36.65 69.05 -36.5 69.25 -36.5 69.15" fill="url(#gradient3)" fill-rule="evenodd" stroke="none"/>
    <path d="M7.6 61.25 L7.7 61.35 7.6 61.35 7.6 61.25 M-36.5 69.15 L-36.5 69.25 -36.65 69.05 -36.5 69.15" fill="url(#gradient4)" fill-rule="evenodd" stroke="none"/>
    <path d="M222.25 -8.8 Q232.9 1.8 232.9 16.8 232.9 31.8 222.25 42.4 211.65 53.0 196.65 53.0 181.7 53.0 171.05 42.4 160.45 31.8 160.45 16.8 160.45 1.8 171.05 -8.8 181.7 -19.4 196.65 -19.4 211.65 -19.4 222.25 -8.8" fill="url(#gradient5)" fill-rule="evenodd" stroke="none"/>
    <path d="M234.2 63.9 L216.75 58.05 Q213.55 57.0 210.3 55.75 191.45 48.7 174.15 42.7 L171.35 41.55 Q163.65 38.0 154.2 38.65 150.9 38.9 152.45 39.5 153.3 39.8 154.0 40.25 L157.15 41.55 160.75 42.95 Q168.65 46.05 175.15 49.35 174.65 49.85 174.15 49.85 148.95 50.25 123.8 50.25 122.9 50.25 122.4 50.75 L121.4 51.9 Q120.1 53.95 119.6 57.8 L119.45 59.75 Q119.05 63.65 115.25 64.55 113.2 62.4 113.3 57.9 L113.35 55.0 Q110.0 55.5 106.7 57.0 L104.75 57.65 Q99.15 58.8 95.95 62.3 93.75 64.7 93.4 62.65 95.15 62.25 95.3 59.75 95.0 57.8 95.9 56.55 L95.4 56.3 Q84.2 59.6 73.4 63.3 L71.65 63.9 Q62.85 67.1 53.5 72.1 L54.55 71.35 Q57.95 69.65 58.25 65.45 48.75 66.25 41.25 72.15 40.7 72.6 40.1 72.75 32.4 75.3 29.7 83.5 29.35 84.5 29.75 84.5 28.2 85.7 25.0 85.9 L24.0 86.15 Q14.1 90.55 3.25 94.2 L-12.45 99.35 -31.0 105.35 -33.85 106.0 -57.95 107.3 -64.2 107.4 -64.2 95.5 -62.7 106.65 Q-12.3 85.4 20.25 73.55 52.7 61.65 81.1 43.25 109.45 24.8 141.6 30.2 173.8 35.65 213.8 48.6 L234.2 58.2 234.2 63.9" fill="url(#gradient6)" fill-rule="evenodd" stroke="none"/>
    <path d="M-12.45 99.35 L3.25 94.2 Q14.1 90.55 24.0 86.15 L25.0 85.9 Q28.2 85.7 29.75 84.5 29.35 84.5 29.7 83.5 32.4 75.3 40.1 72.75 40.7 72.6 41.25 72.15 48.75 66.25 58.25 65.45 57.95 69.65 54.55 71.35 L53.5 72.1 Q62.85 67.1 71.65 63.9 L73.4 63.3 Q84.2 59.6 95.4 56.3 L95.9 56.55 Q95.0 57.8 95.3 59.75 95.15 62.25 93.4 62.65 93.75 64.7 95.95 62.3 99.15 58.8 104.75 57.65 L106.7 57.0 Q110.0 55.5 113.35 55.0 L113.3 57.9 Q113.2 62.4 115.25 64.55 119.05 63.65 119.45 59.75 L119.6 57.8 Q120.1 53.95 121.4 51.9 L122.4 50.75 Q122.9 50.25 123.8 50.25 148.95 50.25 174.15 49.85 174.65 49.85 175.15 49.35 168.65 46.05 160.75 42.95 L157.15 41.55 154.0 40.25 Q153.3 39.8 152.45 39.5 150.9 38.9 154.2 38.65 163.65 38.0 171.35 41.55 L174.15 42.7 Q191.45 48.7 210.3 55.75 213.55 57.0 216.75 58.05 L234.2 63.9 234.2 108.7 Q108.45 82.25 -12.45 99.35 M-64.2 107.4 L-57.95 107.3 -64.2 108.7 -64.2 107.4" fill="#378a00" fill-rule="evenodd" stroke="none"/>
    <path d="M276.65 10.75 L276.8 10.75 276.4 11.0 276.65 10.75 M127.4 36.05 L127.65 35.8 129.9 33.1 Q128.5 32.9 127.1 32.1 L128.15 31.95 129.2 31.85 Q126.75 31.35 125.35 29.55 L127.9 30.05 127.0 29.45 129.0 29.2 127.35 28.75 125.75 27.9 Q128.5 29.0 132.2 27.0 L132.4 26.75 131.7 26.9 132.6 26.45 134.9 22.15 133.9 22.8 134.3 20.35 133.15 21.35 131.3 21.85 133.35 19.6 Q134.7 17.8 135.4 17.55 135.95 16.0 135.95 13.85 L136.6 13.55 137.0 16.25 Q137.1 17.9 137.85 18.95 L137.5 18.65 137.85 19.55 137.35 19.2 137.75 19.85 137.2 19.45 Q138.25 21.85 139.15 22.5 138.4 22.5 137.95 21.75 L138.75 23.25 138.0 22.65 139.65 25.35 Q140.95 27.25 142.55 27.75 141.45 27.6 139.9 26.35 L141.95 28.3 Q140.7 28.05 139.8 27.15 140.45 29.05 142.7 31.05 L146.3 33.75 Q145.0 34.15 142.85 33.25 L145.0 34.9 Q142.85 34.55 141.05 32.75 L142.35 34.8 140.8 33.65 142.2 36.55 143.5 39.4 Q144.25 40.8 145.5 41.95 L147.8 44.0 146.4 43.45 145.05 42.75 Q145.8 43.9 147.2 44.65 L149.65 46.0 Q146.45 45.4 144.75 44.4 L145.4 45.4 145.9 46.4 Q145.3 46.3 144.75 45.8 L143.7 44.85 143.75 45.4 144.5 46.05 143.75 45.55 144.65 46.45 145.55 47.3 145.15 47.2 Q146.55 48.35 148.35 48.75 L149.85 49.85 151.25 50.75 Q152.8 51.55 154.6 51.15 L151.9 51.65 Q150.15 51.65 149.25 51.0 L149.5 51.3 148.05 51.3 Q148.1 52.2 149.2 52.95 L148.5 53.05 150.1 54.0 Q149.5 53.85 148.25 53.05 L147.8 53.05 149.9 55.65 149.6 56.0 148.1 57.4 149.35 57.25 150.25 56.55 149.85 58.05 149.4 57.45 149.6 59.6 148.7 60.85 148.1 61.15 148.5 61.1 148.35 61.25 144.1 61.35 146.15 62.65 144.85 62.55 145.4 63.15 143.75 62.5 144.15 63.15 142.05 63.0 Q140.3 62.5 138.65 60.9 139.25 60.9 140.0 61.25 L140.95 61.75 139.4 60.6 137.85 58.95 139.65 59.55 Q137.95 58.6 137.0 57.3 136.1 55.9 135.65 53.6 L136.6 54.0 137.5 54.6 136.85 52.7 138.0 53.3 136.1 51.7 134.4 49.9 136.3 48.95 134.8 48.85 Q136.35 48.2 137.25 46.8 137.0 46.8 136.45 47.05 L135.55 47.35 136.2 46.8 135.45 46.9 134.8 46.9 Q135.15 46.65 135.85 46.3 L136.95 45.55 Q135.05 46.65 132.4 45.5 L132.25 45.25 132.75 45.3 132.1 45.0 130.2 41.95 130.95 42.35 130.55 40.55 131.35 41.2 131.3 41.2 131.7 41.4 131.35 41.2 132.75 41.4 131.2 39.9 129.65 38.5 Q129.05 37.35 129.0 35.7 L128.55 35.55 Q128.3 36.2 128.4 37.7 L128.4 38.15 Q128.0 38.25 127.65 38.5 L127.4 36.05 M133.35 21.25 L132.75 21.6 133.15 21.35 133.35 21.25 M153.1 58.4 L154.75 59.55 154.45 59.7 153.1 60.1 152.45 58.55 152.95 59.05 152.55 57.95 153.3 58.6 153.1 58.4 M166.5 46.55 L167.35 47.45 167.8 48.05 168.0 48.3 169.15 49.6 169.2 49.6 169.7 50.1 168.55 49.75 167.9 49.6 168.05 49.75 168.3 49.9 168.0 49.75 167.8 49.6 167.9 49.6 166.85 48.7 167.0 49.6 167.1 50.4 167.15 50.9 167.25 51.05 166.25 50.4 Q167.15 52.65 168.5 54.45 L169.3 54.95 168.65 54.75 168.9 55.0 Q171.0 56.15 172.9 56.25 L174.95 55.9 174.15 56.4 173.55 56.65 173.5 56.65 171.95 57.25 172.9 57.3 173.8 57.4 172.9 57.95 174.25 57.65 175.4 57.45 Q174.15 58.95 172.15 59.55 L171.75 59.6 172.65 59.75 173.75 59.95 Q173.1 60.25 172.6 60.5 L171.0 60.85 173.0 63.2 173.25 63.4 175.7 65.7 Q175.05 65.45 174.05 64.8 L174.55 66.5 174.8 67.1 174.8 67.15 174.7 67.1 173.65 66.35 173.5 66.25 Q173.0 65.85 172.35 65.7 L172.35 65.95 172.6 67.15 172.9 68.25 173.3 69.3 173.4 69.55 173.4 69.65 173.5 69.65 173.65 70.05 173.75 70.2 173.9 70.55 174.0 70.6 174.15 70.85 174.9 71.75 175.2 72.1 175.85 72.65 177.25 73.65 174.9 72.65 176.85 74.9 178.9 76.7 177.45 75.85 Q176.45 75.3 175.7 75.2 L175.95 75.45 176.75 76.2 178.0 77.2 178.5 77.5 180.15 78.35 180.3 78.4 181.1 78.6 181.45 78.6 181.95 78.65 182.35 78.75 181.6 79.75 180.8 79.55 177.25 78.9 176.05 78.65 176.2 78.9 176.6 79.5 175.3 78.9 175.7 79.55 175.85 79.75 175.85 79.8 176.2 80.3 176.2 80.4 176.45 80.9 176.3 80.8 176.5 81.3 Q175.7 80.8 175.45 80.45 176.95 82.25 179.3 83.0 L181.8 83.4 181.55 83.9 180.8 84.0 181.35 84.15 180.3 85.3 181.35 84.75 180.45 86.15 179.5 87.1 180.15 86.65 Q180.55 86.3 180.95 86.3 179.95 87.7 178.9 88.2 L177.6 88.5 Q176.7 88.6 176.35 89.1 L178.6 88.95 180.8 88.45 180.55 88.85 181.1 88.5 180.65 89.75 180.7 89.65 180.65 89.75 157.9 89.75 157.65 89.1 158.15 89.6 157.65 88.7 158.3 89.25 157.7 87.85 158.85 88.95 Q158.15 88.0 158.05 87.05 L158.15 84.9 Q158.7 86.15 160.2 87.2 161.75 88.25 162.75 88.0 L159.75 85.15 Q158.15 83.4 157.25 81.55 L157.55 81.6 158.7 82.5 157.8 81.6 158.15 81.6 Q157.45 80.95 157.45 80.3 L158.45 80.45 158.4 80.15 Q159.35 81.2 161.8 80.8 160.6 80.9 159.7 80.15 L157.9 78.5 Q156.65 78.0 155.85 77.1 L156.1 77.2 155.0 75.8 155.5 76.2 155.0 75.6 155.0 75.3 155.1 75.3 155.65 76.05 156.4 76.55 155.65 75.05 Q156.8 75.85 158.85 76.55 L157.4 75.45 156.3 74.4 156.25 74.25 156.4 74.05 Q157.45 74.9 157.8 74.95 L156.75 73.75 157.0 73.55 157.8 72.75 157.15 73.25 157.8 72.6 157.9 72.0 156.9 73.0 156.4 73.3 156.1 72.9 156.25 72.6 156.9 71.7 155.65 72.25 155.25 71.35 156.5 70.05 155.25 70.8 155.1 70.85 154.95 70.35 156.15 69.3 158.05 66.9 159.35 64.1 Q160.1 62.25 160.7 61.35 L159.2 62.5 159.75 61.6 160.45 60.6 Q158.7 62.25 156.65 62.65 157.3 62.05 158.7 61.0 156.65 61.85 155.35 61.4 L158.85 58.85 Q160.9 57.0 161.6 55.15 160.7 56.0 159.55 56.3 L161.5 54.45 Q160.0 55.6 158.95 55.75 160.45 55.25 161.75 53.55 L163.3 50.9 162.55 51.4 163.4 50.0 Q162.9 50.65 162.15 50.75 162.95 50.1 164.05 47.85 L163.55 48.2 163.95 47.6 163.45 47.85 Q163.55 47.35 163.8 47.05 L163.45 47.35 Q164.1 46.3 164.2 44.75 164.35 42.85 164.7 42.1 L165.25 42.55 Q165.25 44.5 165.85 46.0 L166.5 46.55 M119.35 67.0 L119.55 66.9 119.45 67.0 118.95 67.8 118.8 68.15 118.45 68.0 119.35 67.0 M121.5 64.05 Q120.85 63.7 119.6 63.55 L117.5 63.0 118.8 62.8 117.7 62.05 116.6 61.35 117.5 61.4 118.2 61.35 Q116.1 60.5 114.45 58.8 L115.45 59.05 115.9 59.1 114.95 58.4 117.15 58.85 Q118.45 58.95 119.3 58.4 L118.3 57.8 119.05 57.55 Q119.45 57.3 119.7 57.3 L116.65 56.8 120.2 56.5 119.8 57.0 Q120.75 57.4 122.3 56.5 L120.75 58.3 Q122.3 57.9 123.65 56.0 L122.75 58.15 123.9 56.9 Q123.45 57.65 123.05 59.2 L122.55 59.75 123.0 59.6 122.8 60.0 122.65 60.6 Q122.15 60.9 121.4 61.5 L122.5 61.1 121.85 63.2 121.5 64.05 M123.7 51.95 L119.7 52.7 114.7 52.95 Q115.45 52.15 117.4 51.9 L118.95 51.7 120.45 51.4 Q122.25 50.65 123.95 49.2 L122.55 50.5 Q123.3 50.25 124.55 48.95 L123.0 51.05 Q123.9 50.8 124.55 49.85 L124.4 50.5 123.0 51.8 123.8 51.8 123.7 51.95 M124.55 48.3 Q123.9 48.35 123.25 48.75 122.1 49.4 121.5 49.75 L123.9 47.8 125.55 45.9 124.7 47.85 124.55 48.3 M125.7 45.55 L123.4 46.45 125.6 44.75 125.35 45.55 125.95 44.9 125.7 45.55 M126.45 39.4 L125.95 39.75 126.6 37.75 126.6 37.95 126.45 39.4 M126.6 37.25 L125.05 38.15 126.7 36.7 126.6 37.25 M128.3 40.0 L128.4 40.0 128.3 40.05 128.3 40.0 M154.5 69.05 L154.35 68.55 154.7 68.5 154.95 68.7 154.5 69.05 M153.3 60.45 L153.2 60.25 155.0 59.85 153.8 60.6 153.3 60.45 M118.7 68.3 L118.4 68.15 118.45 68.05 118.8 68.15 118.7 68.25 118.8 68.15 118.7 68.3 M119.1 68.0 L119.7 67.55 120.7 66.85 119.35 68.65 118.8 68.4 118.95 68.25 119.1 68.0 M119.2 68.9 L119.1 68.9 117.55 70.1 117.25 69.7 117.3 69.65 117.05 69.45 117.3 69.2 118.15 68.95 117.9 68.95 117.65 68.9 117.9 68.65 119.2 68.9 M117.55 70.2 Q119.7 69.65 120.95 68.65 120.1 70.3 120.0 70.8 L120.25 70.7 117.9 73.0 117.65 72.75 117.4 72.5 117.9 72.0 118.15 71.75 118.05 71.75 118.3 71.5 117.65 71.7 117.5 71.75 117.4 71.75 118.45 71.0 118.7 71.0 118.45 70.95 119.1 70.2 118.65 70.35 118.45 70.45 118.85 69.95 117.9 70.3 117.65 70.3 117.55 70.2 M118.15 73.5 L118.15 73.55 118.05 73.5 118.15 73.5 M117.95 73.65 L117.9 73.8 117.8 73.65 117.95 73.65 M117.65 68.9 L117.9 68.95 117.55 68.95 117.65 68.9 M145.75 66.4 L144.9 67.25 143.5 68.4 143.25 68.25 143.5 68.0 Q143.75 67.75 143.9 67.75 143.2 67.4 142.85 67.4 L145.0 66.85 141.8 66.75 Q140.0 66.4 138.85 65.1 L139.65 65.7 139.5 65.35 139.55 65.35 138.6 63.9 139.55 64.2 139.1 63.65 142.6 63.95 145.0 63.9 146.15 64.55 145.5 64.55 144.75 64.55 Q145.55 65.25 146.55 65.5 L145.8 66.35 145.15 66.25 145.75 66.4 M150.0 58.2 L150.5 57.95 150.25 58.4 150.0 58.2 M145.0 70.35 L144.15 70.35 145.15 69.7 145.0 70.35 M144.1 68.5 L143.75 68.5 144.15 68.25 144.1 68.5 M144.4 71.85 L144.0 72.6 142.7 73.9 141.85 72.85 Q142.3 72.5 143.35 72.25 L144.4 71.85 M143.9 71.5 L144.6 70.85 144.9 70.6 144.5 71.6 144.35 71.6 143.9 71.5 M143.0 74.3 L142.95 74.25 Q143.0 74.15 143.2 74.15 L143.0 74.3 M154.2 68.15 L154.25 68.15 154.2 68.15 M180.8 89.75 L181.05 89.5 180.9 89.75 180.8 89.75" fill="#cc7d54" fill-rule="evenodd" stroke="none"/>
    <path d="M275.15 30.8 L274.75 30.6 274.9 30.6 275.15 30.8 M219.4 89.75 L218.75 88.2 Q219.15 87.8 220.3 87.6 L221.85 86.95 221.35 86.85 220.95 86.7 221.7 85.9 222.5 85.15 221.85 85.25 221.3 85.15 Q222.9 84.25 224.05 82.35 L223.35 82.7 223.0 82.75 223.75 81.95 222.1 82.5 Q221.1 82.6 220.55 81.95 L220.85 81.6 221.2 81.3 220.2 80.7 222.45 80.2 219.55 79.8 220.3 79.75 Q222.0 79.4 223.15 78.15 L222.35 78.65 222.5 78.35 222.45 78.4 223.35 76.95 222.45 77.25 222.85 76.75 219.5 77.0 216.75 76.95 216.6 76.45 218.0 76.2 220.05 76.1 220.7 75.85 223.9 76.05 Q223.4 75.3 222.25 74.95 L223.25 74.05 Q222.75 74.05 222.0 74.4 L221.35 74.7 221.3 74.7 222.5 73.75 224.0 72.25 222.35 72.75 Q224.0 71.95 224.8 70.7 225.65 69.4 226.2 67.15 225.65 67.15 225.3 67.5 L224.4 68.05 225.05 66.35 223.85 66.85 225.7 65.35 227.35 63.55 Q226.45 63.3 225.55 62.65 L226.3 62.55 226.95 62.55 Q225.4 62.0 224.55 60.6 L226.3 61.15 225.65 60.7 226.95 60.7 Q225.4 59.85 225.0 59.45 L229.25 59.35 229.4 59.1 228.9 59.2 229.6 58.95 231.3 56.0 230.65 56.4 231.05 54.6 230.25 55.25 230.3 55.25 229.9 55.4 Q230.05 55.35 230.25 55.25 L228.9 55.4 230.4 54.1 231.9 52.7 232.55 50.1 Q232.7 49.9 232.95 49.85 L233.1 51.9 Q233.05 53.1 233.5 53.95 L233.25 53.7 233.45 54.35 233.1 54.1 233.35 54.6 233.05 54.25 Q233.6 56.1 234.2 56.65 233.6 56.55 233.35 56.0 L233.85 57.15 233.35 56.65 234.25 58.8 Q235.1 60.25 236.05 60.75 235.3 60.5 234.4 59.55 L235.65 61.1 Q234.85 60.85 234.35 60.1 234.65 61.5 236.0 63.15 L238.2 65.45 Q237.3 65.6 236.0 64.8 L237.3 66.2 Q235.9 65.75 234.85 64.3 L235.55 65.85 234.6 64.85 235.3 67.1 236.05 69.4 Q236.45 70.45 237.2 71.35 L238.6 73.1 236.9 71.95 Q237.3 72.85 238.2 73.5 L239.75 74.65 Q237.7 74.0 236.55 73.1 L237.2 74.65 236.45 74.05 235.9 73.3 235.9 73.75 236.3 74.25 235.9 73.8 235.9 73.9 236.95 75.2 236.7 75.15 Q237.7 76.3 239.2 76.7 L238.7 76.6 240.6 78.25 Q241.5 79.0 242.7 78.8 240.15 79.25 239.2 78.25 L239.35 78.5 238.35 78.4 Q238.35 79.05 239.0 79.75 L238.6 79.75 239.6 80.55 Q239.2 80.4 238.45 79.65 L238.1 79.65 Q239.0 81.45 240.6 83.25 L242.95 85.55 242.95 86.15 242.7 86.15 242.65 86.15 Q241.9 85.9 241.05 85.3 239.6 84.25 238.95 83.0 L238.95 85.15 Q239.0 86.05 239.7 86.95 L238.55 85.95 Q238.6 86.45 239.2 87.3 L238.55 86.8 238.6 87.05 238.95 87.6 238.45 87.2 Q238.7 88.0 239.5 88.85 L240.4 89.75 219.4 89.75 M128.4 38.15 L128.4 37.7 Q128.3 36.2 128.55 35.55 L129.0 35.7 Q129.05 37.35 129.65 38.5 L131.2 39.9 132.75 41.4 131.35 41.2 131.7 41.4 131.3 41.2 131.35 41.2 130.55 40.55 130.95 42.35 130.2 41.95 132.1 45.0 132.75 45.3 132.25 45.25 132.4 45.5 Q135.05 46.65 136.95 45.55 L135.85 46.3 Q135.15 46.65 134.8 46.9 L135.45 46.9 136.2 46.8 135.55 47.35 136.45 47.05 Q137.0 46.8 137.25 46.8 136.35 48.2 134.8 48.85 L136.3 48.95 134.4 49.9 136.1 51.7 138.0 53.3 136.85 52.7 137.5 54.6 136.6 54.0 135.65 53.6 Q136.1 55.9 137.0 57.3 137.95 58.6 139.65 59.55 L137.85 58.95 139.4 60.6 140.95 61.75 140.0 61.25 Q139.25 60.9 138.65 60.9 140.3 62.5 142.05 63.0 L144.15 63.15 143.75 62.5 145.4 63.15 144.85 62.55 146.15 62.65 144.1 61.35 148.35 61.25 148.5 61.1 148.1 61.15 148.7 60.85 149.6 59.6 150.25 58.4 150.5 57.95 150.0 58.2 149.75 58.4 149.85 58.05 150.25 56.55 149.35 57.25 148.1 57.4 149.6 56.0 149.9 55.65 Q150.65 54.75 151.05 54.6 151.55 53.45 151.65 51.95 L152.05 51.8 152.2 53.85 Q152.2 55.0 152.65 55.9 L152.4 55.6 152.65 56.25 152.2 56.0 152.45 56.55 152.15 56.15 Q152.65 57.7 153.1 58.4 L153.3 58.6 152.55 57.95 152.95 59.05 152.45 58.55 153.1 60.1 153.2 60.25 153.3 60.45 153.45 60.7 153.45 60.75 153.8 61.35 153.95 61.5 154.1 61.85 154.25 62.0 155.0 62.55 Q154.6 62.4 154.2 62.05 L153.95 61.85 153.7 61.6 153.85 61.85 154.1 62.15 154.5 62.75 154.75 63.05 154.35 62.8 153.8 62.4 153.45 62.05 153.6 62.55 153.8 63.0 154.1 63.65 154.45 64.1 154.5 64.2 155.15 65.05 157.4 67.35 Q156.5 67.5 155.1 66.75 L156.4 68.15 Q155.0 67.65 153.95 66.25 L154.7 67.8 153.7 66.85 154.2 68.15 154.35 68.55 154.5 69.05 154.95 70.35 155.1 70.85 155.25 71.25 155.25 71.35 155.65 72.25 156.1 72.9 156.4 73.3 156.75 73.75 157.8 74.95 Q157.45 74.9 156.4 74.05 L156.1 73.8 156.25 74.25 156.3 74.4 157.4 75.45 158.85 76.55 Q156.8 75.85 155.65 75.05 L156.4 76.55 155.65 76.05 155.1 75.3 155.0 75.2 155.0 75.3 155.0 75.6 155.5 76.2 155.0 75.8 156.1 77.2 155.85 77.1 Q156.65 78.0 157.9 78.5 L159.7 80.15 Q160.6 80.9 161.8 80.8 159.35 81.2 158.4 80.15 L158.45 80.45 157.45 80.3 Q157.45 80.95 158.15 81.6 L157.8 81.6 158.7 82.5 157.55 81.6 157.25 81.55 Q158.15 83.4 159.75 85.15 L162.75 88.0 Q161.75 88.25 160.2 87.2 158.7 86.15 158.15 84.9 L158.05 87.05 Q158.15 88.0 158.85 88.95 L157.7 87.85 158.3 89.25 157.65 88.7 158.15 89.6 157.65 89.1 157.9 89.75 138.6 89.75 139.4 89.5 141.05 88.85 140.55 88.85 140.05 88.7 Q140.3 88.25 140.9 87.85 L141.6 87.1 141.05 87.1 140.45 87.05 Q142.05 86.2 143.25 84.35 L142.55 84.55 142.1 84.65 142.95 83.85 141.3 84.4 Q140.25 84.5 139.65 83.9 L140.0 83.5 140.4 83.25 Q139.75 82.75 139.4 82.7 L141.6 82.2 138.25 81.55 Q136.35 80.7 135.3 78.65 L136.1 79.55 135.95 79.05 136.05 79.15 135.65 78.0 135.15 76.85 136.1 77.5 135.7 76.7 139.4 77.7 143.1 78.0 Q142.45 77.1 141.05 76.75 L139.9 76.55 138.85 76.2 Q137.1 75.3 135.45 72.65 136.05 72.85 136.8 73.4 L137.95 74.3 136.3 72.35 134.8 69.7 136.6 70.85 Q134.9 69.3 134.05 67.35 133.15 65.25 132.85 61.75 L133.8 62.55 134.8 63.45 Q134.3 61.85 134.25 60.75 L135.45 61.85 133.5 59.2 Q132.5 57.8 131.85 56.3 L133.9 55.25 133.15 55.1 132.4 54.95 Q134.15 54.35 135.2 52.4 L134.3 52.65 133.35 52.95 134.05 52.3 133.35 52.2 132.6 52.15 Q132.9 51.9 133.75 51.5 L134.9 50.65 Q132.85 51.8 130.2 49.65 L130.05 49.35 130.55 49.5 129.9 49.0 Q128.9 46.9 128.15 44.35 L128.9 45.05 128.55 42.35 129.45 43.45 130.85 44.0 Q130.35 43.6 129.3 41.6 L128.4 40.25 128.5 40.15 128.4 40.15 128.3 40.05 128.4 40.0 128.3 40.0 128.15 39.75 128.25 39.55 128.05 39.65 128.05 39.55 128.4 38.15 M120.35 66.0 L118.3 65.85 Q119.55 66.0 120.6 65.25 L121.1 64.8 120.35 65.95 120.35 66.0 M153.7 61.6 L153.55 61.4 153.7 61.6 M155.0 62.55 L155.25 62.65 155.0 62.55 M124.4 50.5 L123.8 51.8 123.0 51.8 124.4 50.5 M123.05 59.2 L123.0 59.6 122.55 59.75 123.05 59.2 M122.65 60.6 L122.5 61.1 121.4 61.5 Q122.15 60.9 122.65 60.6 M120.25 70.7 L120.95 70.1 121.75 69.05 121.65 69.7 121.1 70.35 121.65 69.85 120.35 71.75 120.6 71.7 Q119.6 72.9 118.3 73.4 L117.9 73.0 120.25 70.7 M118.05 73.5 L118.15 73.5 118.05 73.5 M145.8 66.35 L146.55 65.5 Q145.55 65.25 144.75 64.55 L145.5 64.55 146.15 64.55 145.0 63.9 142.6 63.95 139.1 63.65 139.55 64.2 138.6 63.9 139.55 65.35 139.5 65.35 139.65 65.7 138.85 65.1 Q140.0 66.4 141.8 66.75 L145.0 66.85 142.85 67.4 Q143.2 67.4 143.9 67.75 143.75 67.75 143.5 68.0 L143.25 68.25 143.5 68.4 144.9 67.25 145.75 66.4 145.8 66.35 M144.4 71.85 L143.35 72.25 Q142.3 72.5 141.85 72.85 L142.7 73.9 144.0 72.6 144.4 71.85 M144.1 68.5 L144.15 68.25 143.75 68.5 144.1 68.5 M145.0 70.35 L145.15 69.7 144.15 70.35 145.0 70.35 M143.9 71.5 L144.35 71.6 144.5 71.6 144.9 70.6 144.6 70.85 143.9 71.5 M143.0 74.3 L143.2 74.15 Q143.0 74.15 142.95 74.25 L143.0 74.3" fill="#a3af62" fill-rule="evenodd" stroke="none"/>
    <path d="M110.35 47.3 L110.4 47.3 110.6 47.55 110.35 47.3 M253.9 36.8 L254.15 36.95 253.9 36.8" fill="#6da168" fill-rule="evenodd" stroke="none"/>
    <path d="M200.25 66.75 L201.5 64.85 200.5 65.7 199.5 66.25 199.6 66.2 201.25 64.05 202.65 61.25 203.7 58.05 204.7 54.95 203.55 56.15 204.55 54.0 Q203.2 56.0 201.55 56.4 L203.2 54.5 Q201.55 55.5 200.6 55.1 L203.3 52.05 Q204.85 50.0 205.45 47.95 L203.85 49.2 205.35 47.05 Q204.2 48.35 203.4 48.5 204.55 47.95 205.5 46.0 L206.75 42.95 206.15 43.6 206.75 42.05 Q206.4 42.75 205.85 42.85 206.5 42.1 207.3 39.5 L206.9 40.0 207.25 39.25 206.85 39.55 207.05 38.6 206.85 38.9 207.5 36.05 Q207.55 33.8 207.8 33.0 L208.2 33.4 Q208.2 35.65 208.7 37.45 209.15 37.75 210.2 39.75 L211.65 42.05 210.35 41.55 209.45 40.4 209.8 43.2 209.05 42.45 Q209.7 44.9 210.7 47.05 L211.35 47.6 210.85 47.35 211.0 47.7 Q213.75 49.85 215.8 48.7 L214.65 49.6 213.4 50.15 214.15 50.35 214.9 50.4 214.15 51.05 215.1 50.75 216.1 50.5 Q214.95 52.45 213.25 52.95 L213.95 53.1 214.8 53.3 Q213.75 54.2 212.75 54.35 213.4 55.85 214.4 57.3 L216.25 59.95 215.05 58.85 215.6 61.6 214.7 60.6 Q214.3 60.0 213.75 59.85 214.05 63.3 214.9 65.35 215.3 66.4 216.05 67.35 217.9 65.45 220.3 61.65 L219.65 63.55 219.8 63.2 220.85 61.0 220.45 61.6 222.0 58.55 Q221.45 58.15 220.4 57.9 L218.65 57.15 219.65 57.0 218.9 56.1 218.0 55.35 218.65 55.35 219.3 55.25 Q217.6 54.35 216.35 52.4 L217.1 52.7 217.5 52.8 216.7 51.95 Q217.5 52.45 218.4 52.55 219.5 52.55 220.15 51.95 L219.3 51.25 219.9 51.0 220.4 50.65 218.1 50.15 Q220.15 50.15 221.6 49.5 223.5 48.6 224.65 46.55 L223.85 47.45 224.0 46.95 223.9 47.05 224.4 45.8 224.8 44.65 Q224.15 44.9 223.75 45.3 L224.25 44.4 220.4 45.5 216.5 45.8 Q217.1 44.85 218.65 44.5 L219.8 44.25 220.95 43.9 Q222.75 42.95 224.5 40.25 223.85 40.3 223.1 40.95 L221.75 42.05 Q222.7 41.3 223.6 39.8 L225.2 37.2 223.25 38.35 Q225.05 36.7 225.95 34.55 226.85 32.45 227.2 28.8 L226.2 29.65 225.2 30.6 225.8 27.75 224.5 28.9 226.55 26.1 228.25 23.05 Q227.2 22.9 226.15 22.0 L226.95 21.75 227.7 21.6 Q225.8 21.0 224.75 19.05 225.3 19.05 226.8 19.6 L226.05 18.9 226.8 18.8 227.5 18.7 226.3 18.05 225.05 17.15 Q227.2 18.4 230.0 16.1 L230.15 15.75 229.65 16.0 230.4 15.45 232.1 10.6 231.4 11.3 231.7 8.45 230.8 9.6 229.35 10.15 230.9 7.7 Q232.05 5.65 232.45 5.3 232.95 3.5 232.95 1.15 L233.45 0.75 Q233.7 1.65 233.75 3.85 233.85 5.75 234.4 6.95 L234.2 6.55 234.4 7.55 234.0 7.2 234.35 7.95 233.95 7.55 Q234.75 10.25 235.5 11.0 234.85 10.9 234.5 10.15 L235.1 11.8 234.5 11.15 235.8 14.3 Q236.8 16.4 238.05 17.0 237.15 16.75 236.0 15.45 L237.55 17.65 Q236.55 17.3 235.9 16.35 236.45 18.45 238.1 20.7 L240.9 23.8 Q239.9 24.2 238.3 23.25 L239.9 25.2 Q238.2 24.8 236.9 22.75 L237.85 24.95 236.65 23.65 237.7 26.9 238.75 30.3 Q239.35 31.85 240.35 33.15 L242.05 35.55 Q241.65 35.4 241.0 34.9 L240.0 34.05 Q240.6 35.4 241.65 36.3 L243.45 37.75 Q241.05 37.1 239.7 36.05 L240.15 37.1 240.65 38.25 239.7 37.6 238.95 36.45 238.95 37.1 239.5 37.85 238.95 37.25 238.95 37.35 240.35 39.25 240.1 39.15 Q241.25 40.7 242.95 41.05 L242.45 40.95 243.3 41.8 242.95 41.8 242.95 43.9 242.2 43.9 Q242.3 44.85 242.95 45.65 L242.95 45.8 242.65 45.8 242.95 46.15 242.95 46.4 242.45 45.9 242.05 45.8 242.95 47.6 242.95 85.55 240.6 83.25 Q239.0 81.45 238.1 79.65 L238.45 79.65 Q239.2 80.4 239.6 80.55 L238.6 79.75 239.0 79.75 Q238.35 79.05 238.35 78.4 L239.35 78.5 239.2 78.25 Q240.15 79.25 242.7 78.8 241.5 79.0 240.6 78.25 L238.7 76.6 239.2 76.7 Q237.7 76.3 236.7 75.15 L236.95 75.2 235.9 73.9 235.9 73.8 236.3 74.25 235.9 73.75 235.9 73.3 236.45 74.05 237.2 74.65 236.55 73.1 Q237.7 74.0 239.75 74.65 L238.2 73.5 Q237.3 72.85 236.9 71.95 L238.6 73.1 237.2 71.35 Q236.45 70.45 236.05 69.4 L235.3 67.1 234.6 64.85 235.55 65.85 234.85 64.3 Q235.9 65.75 237.3 66.2 L236.0 64.8 Q237.3 65.6 238.2 65.45 L236.0 63.15 Q234.65 61.5 234.35 60.1 234.85 60.85 235.65 61.1 L234.4 59.55 Q235.3 60.5 236.05 60.75 235.1 60.25 234.25 58.8 L233.35 56.65 233.85 57.15 233.35 56.0 Q233.6 56.55 234.2 56.65 233.6 56.1 233.05 54.25 L233.35 54.6 233.1 54.1 233.45 54.35 233.25 53.7 233.5 53.95 Q233.05 53.1 233.1 51.9 L232.95 49.85 Q232.7 49.9 232.55 50.1 L231.9 52.7 230.4 54.1 228.9 55.4 230.25 55.25 Q230.05 55.35 229.9 55.4 L230.3 55.25 230.25 55.25 231.05 54.6 230.65 56.4 231.3 56.0 229.6 58.95 228.9 59.2 229.4 59.1 229.25 59.35 225.0 59.45 Q225.4 59.85 226.95 60.7 L225.65 60.7 226.3 61.15 224.55 60.6 Q225.4 62.0 226.95 62.55 L226.3 62.55 225.55 62.65 Q226.45 63.3 227.35 63.55 L225.7 65.35 223.85 66.85 225.05 66.35 224.4 68.05 225.3 67.5 Q225.65 67.15 226.2 67.15 225.65 69.4 224.8 70.7 224.0 71.95 222.35 72.75 L224.0 72.25 222.5 73.75 221.3 74.7 221.35 74.7 222.0 74.4 Q222.75 74.05 223.25 74.05 L222.25 74.95 Q223.4 75.3 223.9 76.05 L220.7 75.85 220.05 76.1 218.0 76.2 216.6 76.45 216.75 76.95 219.5 77.0 222.85 76.75 222.45 77.25 223.35 76.95 222.45 78.4 222.5 78.35 222.35 78.65 223.15 78.15 Q222.0 79.4 220.3 79.75 L219.55 79.8 222.45 80.2 220.2 80.7 221.2 81.3 220.85 81.6 220.55 81.95 Q221.1 82.6 222.1 82.5 L223.75 81.95 223.0 82.75 223.35 82.7 224.05 82.35 Q222.9 84.25 221.3 85.15 L221.85 85.25 222.5 85.15 221.7 85.9 220.95 86.7 221.35 86.85 221.85 86.95 220.3 87.6 Q219.15 87.8 218.75 88.2 L219.4 89.75 196.95 89.75 197.2 89.5 Q198.1 88.45 198.55 87.2 L197.9 87.8 198.45 86.65 197.7 87.3 198.55 85.4 197.15 86.7 Q197.95 85.5 198.1 84.1 L198.3 80.95 Q197.45 82.7 195.8 83.9 194.0 85.25 192.95 84.65 L196.5 80.95 Q198.35 78.75 199.5 76.2 L199.6 76.1 199.5 76.1 199.2 76.1 197.9 77.2 198.95 76.1 198.55 76.05 198.95 75.55 199.1 75.2 199.35 74.25 198.3 74.25 Q198.3 74.0 198.45 73.8 197.2 75.2 194.5 74.05 195.8 74.55 196.95 73.55 L197.95 72.6 198.8 71.85 198.85 71.75 199.05 71.6 199.1 71.5 198.85 71.5 199.2 71.45 Q200.4 70.95 201.4 69.7 L201.15 69.8 201.8 68.9 202.5 68.0 202.0 68.5 202.55 67.75 202.55 67.15 201.8 68.25 Q201.35 68.8 200.9 68.9 L201.8 66.75 Q200.6 67.75 198.45 68.3 L198.2 68.4 198.35 68.25 199.95 67.0 Q200.0 66.9 200.1 66.9 L200.25 66.75 M242.95 86.15 L242.95 87.1 242.65 87.95 242.7 86.15 242.95 86.15 M242.65 86.15 Q242.3 86.65 242.3 87.7 L242.3 89.6 240.9 86.65 Q240.65 87.2 240.75 88.45 L240.75 89.75 240.4 89.75 239.75 88.45 Q239.1 87.3 238.6 87.05 L238.55 86.8 239.2 87.3 Q238.6 86.45 238.55 85.95 L239.7 86.95 Q239.0 86.05 238.95 85.15 L238.95 83.0 Q239.6 84.25 241.05 85.3 241.9 85.9 242.65 86.15 M127.4 36.05 L127.65 38.5 127.85 39.3 128.05 39.55 128.05 39.65 128.15 39.75 128.3 40.0 128.3 40.05 128.4 40.15 128.5 40.15 128.4 40.25 129.3 41.6 Q130.35 43.6 130.85 44.0 L129.45 43.45 128.55 42.35 128.9 45.05 128.15 44.35 Q128.9 46.9 129.9 49.0 L130.55 49.5 130.05 49.35 130.2 49.65 Q132.85 51.8 134.9 50.65 L133.75 51.5 Q132.9 51.9 132.6 52.15 L133.35 52.2 134.05 52.3 133.35 52.95 134.3 52.65 135.2 52.4 Q134.15 54.35 132.4 54.95 L133.15 55.1 133.9 55.25 131.85 56.3 Q132.5 57.8 133.5 59.2 L135.45 61.85 134.25 60.75 Q134.3 61.85 134.8 63.45 L133.8 62.55 132.85 61.75 Q133.15 65.25 134.05 67.35 134.9 69.3 136.6 70.85 L134.8 69.7 136.3 72.35 137.95 74.3 136.8 73.4 Q136.05 72.85 135.45 72.65 137.1 75.3 138.85 76.2 L139.9 76.55 141.05 76.75 Q142.45 77.1 143.1 78.0 L139.4 77.7 135.7 76.7 136.1 77.5 135.15 76.85 135.65 78.0 136.05 79.15 135.95 79.05 136.1 79.55 135.3 78.65 Q136.35 80.7 138.25 81.55 L141.6 82.2 139.4 82.7 Q139.75 82.75 140.4 83.25 L140.0 83.5 139.65 83.9 Q140.25 84.5 141.3 84.4 L142.95 83.85 142.1 84.65 142.55 84.55 143.25 84.35 Q142.05 86.2 140.45 87.05 L141.05 87.1 141.6 87.1 140.9 87.85 Q140.3 88.25 140.05 88.7 L140.55 88.85 141.05 88.85 139.4 89.5 138.6 89.75 117.5 89.75 117.65 89.1 117.05 89.75 117.65 88.5 116.8 89.15 Q117.5 88.1 117.65 87.3 L116.35 88.6 Q117.05 87.45 117.3 86.05 L117.5 82.85 Q116.6 84.55 114.95 85.9 113.15 87.2 112.05 86.55 L115.6 82.95 Q117.5 80.65 118.65 78.1 L118.7 78.0 118.55 78.0 Q118.4 78.0 118.4 78.1 L117.0 79.15 118.15 78.1 117.65 78.0 118.05 77.45 118.3 77.1 118.55 76.2 117.4 76.1 117.55 75.8 Q116.35 77.1 113.7 76.05 114.95 76.45 116.15 75.55 L117.15 74.55 117.9 73.8 117.95 73.65 118.15 73.55 118.15 73.5 118.3 73.4 118.05 73.5 118.3 73.4 Q119.6 72.9 120.6 71.7 L120.35 71.75 121.65 69.85 121.1 70.35 121.65 69.7 121.75 69.05 120.95 70.1 120.25 70.7 120.0 70.8 Q120.1 70.3 120.95 68.65 119.7 69.65 117.55 70.2 L117.3 70.3 117.55 70.1 119.1 68.9 119.2 68.9 119.35 68.65 120.7 66.85 119.7 67.55 119.1 68.0 118.8 68.15 118.95 67.8 120.35 66.0 120.35 65.95 121.1 64.8 121.5 64.05 121.85 63.2 122.5 61.1 122.65 60.6 122.8 60.0 123.0 59.6 123.05 59.2 Q123.45 57.65 123.9 56.9 L122.75 58.15 123.65 56.0 Q122.3 57.9 120.75 58.3 L122.3 56.5 Q120.75 57.4 119.8 57.0 L120.2 56.5 122.4 54.0 123.7 51.95 123.8 51.8 124.4 50.5 124.55 49.85 Q123.9 50.8 123.0 51.05 L124.55 48.95 Q123.3 50.25 122.55 50.5 L123.95 49.2 124.55 48.3 124.7 47.85 125.55 45.9 125.7 45.55 125.95 44.9 125.35 45.55 125.6 44.75 125.95 43.9 125.05 44.75 126.5 41.45 126.1 41.85 126.45 41.15 126.0 41.45 Q126.0 40.95 126.25 40.55 L126.0 40.9 126.45 39.4 126.6 37.95 126.6 37.75 126.6 37.25 126.7 36.7 126.9 34.9 127.4 35.3 127.4 36.05 M104.0 63.8 L105.5 65.25 Q104.4 65.95 102.7 64.7 L102.55 64.6 Q100.75 63.2 99.9 61.4 L100.0 64.8 Q100.25 66.2 101.05 67.5 L99.65 66.1 Q99.8 66.9 100.5 68.05 L99.65 67.35 100.3 68.65 99.65 68.0 Q100.0 69.2 100.8 70.3 L100.95 70.45 101.45 70.95 102.55 72.0 102.7 72.15 102.6 72.1 102.7 72.15 102.85 72.25 103.6 73.1 103.0 72.6 102.95 72.6 102.85 72.6 102.95 72.6 102.95 72.65 Q103.85 74.3 105.5 75.7 107.05 77.0 108.35 77.1 106.55 77.25 104.65 75.6 L106.05 77.45 105.25 77.1 Q107.05 79.05 108.6 79.5 L108.3 79.25 108.35 79.25 109.1 79.65 108.3 80.05 111.15 79.75 Q108.85 81.05 105.3 79.75 L107.55 81.6 105.0 81.35 106.05 82.75 104.85 82.95 102.7 83.25 104.0 83.2 105.3 83.1 103.6 83.6 104.15 83.6 Q103.7 84.1 102.55 84.35 L100.65 84.65 103.0 84.55 Q104.5 84.4 105.3 84.55 105.0 84.9 104.1 85.15 L106.15 85.05 104.35 85.55 102.45 85.65 105.3 85.9 106.95 85.55 107.2 85.55 108.05 86.4 108.35 86.65 107.6 86.95 108.45 86.7 109.2 87.2 Q109.0 87.2 108.95 87.3 L106.7 88.1 105.0 88.85 104.65 88.75 104.75 89.0 104.75 89.1 104.85 89.1 105.1 89.5 104.75 89.65 104.5 89.75 71.9 89.75 72.3 89.35 70.5 89.75 67.05 89.75 66.95 89.75 69.45 89.4 Q71.0 88.95 71.75 87.6 68.1 88.85 66.0 88.2 L68.2 87.7 70.5 87.2 69.1 87.45 Q69.5 87.05 70.35 86.65 L71.75 85.9 Q73.4 84.9 73.95 83.35 L71.25 84.25 68.45 85.15 Q68.8 84.8 69.2 84.65 L66.25 84.4 68.2 83.85 70.25 83.35 Q72.7 82.6 74.05 81.05 73.7 81.1 73.45 81.3 L74.6 80.2 Q73.95 80.4 73.4 80.2 74.95 79.3 75.85 77.45 L75.7 77.5 75.35 77.7 74.35 78.35 74.7 77.9 70.9 79.25 Q73.45 77.6 76.75 72.25 L76.1 74.05 76.35 73.75 77.4 71.5 77.0 72.15 78.45 69.05 Q78.0 68.65 76.85 68.4 75.7 68.15 75.2 67.75 L76.15 67.5 75.35 66.65 74.55 65.85 75.2 65.95 75.75 65.85 Q74.1 64.95 72.9 63.0 L73.65 63.3 74.05 63.4 73.2 62.5 Q73.95 63.0 74.95 63.05 75.9 63.15 76.6 62.5 L75.85 61.85 76.4 61.5 76.9 61.25 74.55 60.7 Q76.65 60.7 78.05 60.1 79.95 59.2 81.2 57.05 L80.35 58.05 80.5 57.45 80.45 57.55 Q80.5 57.05 80.85 56.3 L81.35 55.15 80.3 55.9 80.75 54.95 76.9 56.0 73.05 56.3 Q73.65 55.4 75.2 55.1 L76.35 54.85 77.5 54.5 Q79.3 53.55 81.0 50.75 80.35 50.9 79.6 51.5 L78.45 52.45 80.1 50.4 81.65 47.7 79.8 48.85 Q81.6 47.2 82.5 45.15 83.3 42.95 83.75 39.3 83.15 39.55 82.75 40.15 L81.75 41.15 82.35 38.35 81.0 39.4 83.05 36.7 84.8 33.65 Q83.65 33.4 82.65 32.5 L83.5 32.35 Q83.95 32.1 84.2 32.2 82.35 31.6 81.25 29.55 L83.25 30.15 82.5 29.45 83.3 29.4 84.05 29.2 82.8 28.55 81.6 27.65 Q83.75 28.9 86.5 26.7 L86.7 26.35 86.2 26.5 86.85 25.95 88.65 21.1 87.85 21.9 88.15 19.05 87.25 20.2 Q86.25 20.6 85.85 20.75 L87.4 18.3 Q88.55 16.25 89.0 15.85 89.45 14.05 89.45 11.65 L89.95 11.25 90.3 14.45 Q90.4 16.35 90.95 17.5 L90.6 17.15 90.95 18.15 90.55 17.75 90.8 18.55 90.45 18.05 Q91.3 20.75 91.95 21.5 91.35 21.5 91.05 20.7 L91.6 22.3 91.05 21.65 92.25 24.8 Q93.35 26.9 94.55 27.5 93.65 27.25 92.5 25.95 93.6 27.75 94.05 28.15 93.1 27.9 92.45 26.85 92.9 29.0 94.65 31.2 95.4 32.25 97.45 34.3 96.35 34.8 94.75 33.8 L96.45 35.7 Q94.75 35.3 93.4 33.25 L94.4 35.55 93.15 34.25 94.25 37.5 95.3 40.8 Q95.9 42.45 96.85 43.75 L98.6 46.05 97.5 45.5 96.55 44.6 Q97.1 45.9 98.2 46.9 L100.0 48.3 Q97.6 47.7 96.2 46.55 L96.7 47.6 97.1 48.75 Q96.7 48.7 96.2 48.1 L95.4 46.95 95.45 47.6 96.05 48.35 95.45 47.85 96.15 48.85 96.85 49.85 96.6 49.65 Q97.85 51.3 99.6 51.65 L99.0 51.55 100.15 52.7 101.2 53.8 Q102.45 54.7 103.85 54.25 100.95 55.4 99.75 54.0 L99.9 54.35 98.75 54.45 Q98.85 55.5 99.65 56.3 L99.15 56.4 100.3 57.55 98.9 56.4 98.6 56.4 Q99.8 59.05 101.8 61.5 L104.0 63.8 M118.8 68.15 L118.7 68.25 118.8 68.15 M105.9 89.0 L105.4 88.95 105.3 88.95 106.8 88.35 105.9 89.0 M217.85 67.75 L218.15 67.4 Q217.25 67.65 216.5 68.0 L217.5 68.95 216.1 68.05 215.85 68.15 217.2 70.35 217.25 70.55 218.1 69.7 216.85 69.7 Q218.4 68.7 219.3 66.9 L219.15 66.9 218.8 67.1 217.85 67.75 M217.35 70.7 L217.6 70.45 217.25 70.6 217.35 70.7 M216.7 71.35 L217.0 71.0 216.35 70.8 216.7 71.35" fill="#13582a" fill-rule="evenodd" stroke="none"/>
    <path d="M200.25 66.75 L200.1 66.9 Q198.55 66.75 197.8 66.25 L198.7 67.1 197.8 66.75 198.1 67.25 197.65 67.1 198.35 68.25 198.2 68.4 198.45 68.3 199.5 69.15 Q198.1 68.9 197.45 68.15 197.3 68.4 197.45 68.9 L197.7 69.65 197.55 69.45 197.7 69.95 197.9 70.2 199.2 71.45 198.85 71.5 199.1 71.5 199.05 71.6 198.85 71.75 198.6 71.7 198.8 71.85 197.95 72.6 196.95 73.55 Q195.8 74.55 194.5 74.05 197.2 75.2 198.45 73.8 198.3 74.0 198.3 74.25 L199.35 74.25 199.1 75.2 198.45 74.8 198.95 75.55 198.55 76.05 198.95 76.1 197.9 77.2 199.2 76.1 199.5 76.1 199.5 76.2 Q198.35 78.75 196.5 80.95 L192.95 84.65 Q194.0 85.25 195.8 83.9 197.45 82.7 198.3 80.95 L198.1 84.1 Q197.95 85.5 197.15 86.7 L198.55 85.4 197.7 87.3 198.45 86.65 197.9 87.8 198.55 87.2 Q198.1 88.45 197.2 89.5 L196.95 89.75 189.25 89.75 190.15 88.75 Q189.1 89.35 187.45 89.75 L182.1 89.75 183.75 89.5 185.55 88.85 185.25 88.95 Q185.3 88.85 186.05 88.6 L186.8 88.25 183.4 88.75 Q184.1 88.45 185.65 87.7 L187.7 86.45 185.55 87.1 Q186.05 86.65 187.6 86.15 L189.75 85.4 189.85 85.4 Q189.9 85.3 190.1 85.25 L190.15 85.15 190.75 84.65 191.0 84.4 191.2 84.15 190.9 84.35 190.3 84.5 189.9 84.55 189.85 84.65 189.6 84.75 189.35 84.75 189.25 84.8 188.5 85.05 Q188.7 84.9 189.25 84.65 L189.4 84.55 Q189.6 84.4 189.75 84.35 L189.85 84.35 189.9 84.25 190.4 83.85 190.65 83.6 190.65 83.5 190.5 83.5 190.15 83.6 188.45 83.9 189.5 83.4 187.85 83.65 186.15 84.0 183.25 83.75 185.25 83.65 186.95 83.1 185.0 83.2 185.65 82.95 Q185.95 82.75 186.2 82.7 185.4 82.5 183.85 82.7 L182.05 82.75 181.55 82.75 182.1 82.6 183.4 82.45 Q184.55 82.2 185.0 81.7 L184.25 81.7 186.2 81.1 184.8 81.2 183.6 81.3 185.65 81.05 187.8 80.65 Q188.25 80.4 188.85 80.15 L190.5 79.05 188.5 79.4 Q190.0 79.0 192.2 77.75 L189.35 78.1 189.15 78.1 189.25 78.1 189.6 77.9 190.15 77.7 191.15 77.25 190.1 77.35 189.85 77.35 189.0 77.25 189.5 77.0 190.25 76.75 191.4 76.3 190.75 76.1 191.3 75.8 189.9 75.95 188.6 75.85 190.5 75.3 Q191.45 74.9 191.9 74.3 L190.9 74.3 191.55 73.8 Q191.2 73.65 190.8 73.8 L191.45 73.15 188.6 73.25 189.6 73.0 190.5 72.6 190.15 72.4 190.8 72.25 189.85 72.35 188.85 72.35 190.25 71.85 191.55 71.1 190.65 71.1 191.4 70.7 189.5 70.2 191.65 70.1 193.5 69.3 192.2 69.55 193.95 68.15 193.3 68.3 Q193.5 68.05 193.95 67.9 L192.7 68.25 193.6 67.75 191.0 68.25 188.35 68.25 189.4 67.9 188.1 67.9 189.85 67.35 191.7 66.75 Q194.0 65.85 194.6 64.7 L194.25 64.7 194.65 64.3 194.35 64.3 194.5 64.2 192.85 64.1 193.7 63.9 194.45 63.4 194.2 63.3 195.0 62.8 193.1 63.05 194.75 61.85 194.5 61.9 194.85 61.4 193.5 61.85 194.45 61.1 195.15 60.2 Q195.25 59.7 195.75 59.35 L195.8 59.1 196.0 60.35 195.9 59.45 196.15 60.25 196.05 59.85 Q196.4 60.25 196.75 61.35 L196.65 61.25 196.8 61.5 196.65 61.4 197.05 61.85 196.75 61.75 197.65 62.4 198.8 63.05 Q197.95 63.0 197.05 62.55 L197.55 63.05 197.05 62.9 197.3 63.2 196.9 63.2 Q197.45 64.35 200.25 65.1 L199.05 64.95 197.8 64.6 198.8 65.5 198.45 65.5 199.6 66.2 198.7 65.75 Q199.35 66.35 200.25 66.75 M154.75 59.55 L156.1 58.55 155.85 58.55 156.5 57.9 Q156.0 58.05 155.6 58.4 L156.1 57.7 156.0 57.7 156.15 57.65 156.5 57.25 157.05 56.15 156.9 56.3 157.25 55.75 156.15 56.65 156.5 56.25 155.35 56.9 156.5 55.25 154.85 56.1 155.0 55.75 154.1 56.0 153.1 56.1 Q154.75 55.6 155.85 54.5 L154.2 54.95 155.1 54.2 155.9 53.55 155.15 53.8 156.1 52.85 154.85 53.3 155.65 52.7 155.1 52.95 156.3 51.95 156.75 51.25 Q156.25 51.65 155.4 51.9 L153.95 51.95 154.95 51.4 154.45 51.4 155.35 50.8 153.35 51.0 155.6 50.35 Q157.05 50.0 157.8 49.5 L156.0 49.85 Q158.3 49.0 159.35 47.05 L157.95 47.95 156.4 48.2 157.65 47.3 156.1 47.8 156.65 47.3 157.25 46.8 155.15 47.15 Q156.25 46.7 156.9 46.0 L155.25 46.4 153.45 46.4 Q156.25 46.05 157.95 45.05 L159.2 43.85 158.7 43.85 158.85 43.6 157.7 44.15 159.95 42.2 160.1 41.95 160.35 41.45 160.2 41.6 160.45 40.9 160.45 40.15 Q159.6 40.8 158.2 41.15 159.45 40.45 160.2 39.0 L159.7 39.15 160.0 38.65 159.05 38.9 160.0 38.15 Q158.95 38.75 156.55 38.9 157.95 38.5 159.1 37.6 L158.15 38.0 159.3 37.25 159.05 37.35 160.1 36.35 158.8 36.8 157.45 36.95 Q160.25 36.1 161.0 34.95 L160.6 34.95 160.85 34.65 160.35 34.8 160.85 34.25 159.05 34.7 Q159.7 34.55 160.2 34.05 L161.15 33.35 160.85 33.5 161.25 33.1 161.1 33.15 161.25 32.9 161.15 32.9 Q161.5 31.85 161.8 31.45 L161.8 31.85 162.0 31.05 161.9 31.95 162.05 30.6 162.15 30.85 162.8 31.75 163.55 32.75 164.45 33.5 163.05 33.1 163.45 33.6 163.2 33.5 Q163.7 34.05 164.95 34.8 L163.95 34.65 162.95 34.55 163.9 34.95 Q163.55 35.05 163.55 35.15 L164.3 35.65 165.2 35.85 163.45 35.95 163.65 36.05 163.3 36.05 163.7 36.45 163.4 36.45 Q163.95 37.75 166.35 38.65 L170.2 39.8 168.8 39.9 169.95 40.25 167.15 40.15 164.35 39.65 165.35 40.15 164.05 39.9 164.8 40.3 164.1 40.15 165.95 41.55 164.55 41.3 Q165.6 41.95 166.4 42.2 L168.7 42.3 166.75 42.75 167.55 43.2 166.6 43.2 167.9 43.9 169.4 44.5 168.4 44.5 167.35 44.4 168.05 44.6 167.75 44.75 168.65 45.15 169.65 45.5 166.65 45.3 167.35 46.05 Q166.9 45.9 166.6 46.05 L167.25 46.55 166.5 46.55 165.85 46.0 Q165.25 44.5 165.25 42.55 L164.7 42.1 Q164.35 42.85 164.2 44.75 164.1 46.3 163.45 47.35 L163.8 47.05 Q163.55 47.35 163.45 47.85 L163.95 47.6 163.55 48.2 164.05 47.85 Q162.95 50.1 162.15 50.75 162.9 50.65 163.4 50.0 L162.55 51.4 163.3 50.9 161.75 53.55 Q160.45 55.25 158.95 55.75 160.0 55.6 161.5 54.45 L159.55 56.3 Q160.7 56.0 161.6 55.15 160.9 57.0 158.85 58.85 L155.35 61.4 Q156.65 61.85 158.7 61.0 157.3 62.05 156.65 62.65 158.7 62.25 160.45 60.6 L159.75 61.6 159.2 62.5 160.7 61.35 Q160.1 62.25 159.35 64.1 L158.05 66.9 156.15 69.3 154.95 70.35 154.5 69.05 154.95 68.7 155.25 68.4 154.7 68.5 154.35 68.55 154.2 68.15 153.7 66.85 154.7 67.8 153.95 66.25 Q155.0 67.65 156.4 68.15 L155.1 66.75 Q156.5 67.5 157.4 67.35 L155.15 65.05 154.5 64.2 154.7 64.1 154.45 64.1 154.1 63.65 154.45 63.55 155.25 63.2 155.25 63.05 155.15 63.15 156.0 62.0 155.0 62.55 154.25 62.0 154.45 61.75 154.1 61.85 153.95 61.5 154.6 61.15 153.8 61.35 153.45 60.75 153.8 60.6 155.0 59.85 153.2 60.25 153.1 60.1 154.45 59.7 154.75 59.55 M167.35 47.45 L167.75 47.6 169.65 48.2 168.25 48.3 168.0 48.3 167.8 48.05 167.35 47.45 M169.15 49.6 L169.2 49.6 169.15 49.6 M168.55 49.75 L168.15 49.75 168.05 49.75 167.9 49.6 168.55 49.75 M168.0 49.75 L167.0 49.6 168.05 50.1 169.15 50.5 167.1 50.4 167.0 49.6 166.85 48.7 167.9 49.6 167.8 49.6 168.0 49.75 M167.15 50.9 L169.7 51.9 167.75 51.55 Q168.9 52.55 170.55 53.1 L172.75 53.55 174.9 53.85 173.55 53.8 172.15 53.7 174.25 54.25 173.4 54.25 Q173.9 54.75 175.15 55.0 L177.1 55.4 174.65 55.35 172.25 55.25 Q172.5 55.6 173.5 55.85 L171.35 55.75 Q171.85 56.1 172.9 56.25 171.0 56.15 168.9 55.0 L168.65 54.75 169.3 54.95 168.5 54.45 Q167.15 52.65 166.25 50.4 L167.25 51.05 167.15 50.9 M174.15 56.4 L175.3 56.4 173.55 56.65 174.15 56.4 M172.15 59.55 L172.65 59.75 171.75 59.6 172.15 59.55 M172.6 60.5 L172.85 60.6 175.05 61.65 173.3 61.4 171.6 61.15 173.15 61.85 172.85 61.85 173.8 62.15 174.8 62.5 179.75 62.9 177.35 63.3 174.95 63.3 175.45 63.4 173.5 63.15 174.9 63.45 176.2 63.9 173.0 63.2 171.0 60.85 172.6 60.5 M174.55 66.5 L175.2 66.65 177.1 67.1 174.8 67.1 174.55 66.5 M174.7 67.1 L173.25 66.85 175.8 67.8 173.0 67.35 172.6 67.15 172.35 65.95 173.5 66.25 173.65 66.35 174.7 67.1 M172.9 68.25 L173.5 68.65 174.7 69.2 173.3 69.3 172.9 68.25 M173.4 69.55 L173.5 69.65 173.4 69.65 173.4 69.55 M173.5 69.65 L174.3 69.7 176.3 69.8 174.9 70.05 173.65 70.05 173.5 69.65 M173.75 70.2 L175.45 70.45 174.0 70.6 173.9 70.55 173.75 70.2 M174.15 70.85 L175.8 71.35 179.5 72.0 174.9 71.75 174.15 70.85 M175.2 72.1 L175.45 72.15 177.0 72.6 175.85 72.65 175.2 72.1 M175.95 75.45 L176.45 75.7 178.5 76.6 176.75 76.2 175.95 75.45 M178.5 77.5 L183.0 77.85 182.7 78.25 180.3 78.4 180.15 78.35 178.5 77.5 M108.3 79.25 L108.1 79.15 109.35 78.75 110.5 78.25 109.85 78.1 110.4 77.75 109.1 77.9 107.8 77.85 Q108.35 77.6 109.6 77.25 110.65 76.85 111.05 76.2 L110.1 76.2 110.75 75.7 Q110.35 75.55 110.0 75.7 L110.65 75.15 107.8 75.2 108.7 74.9 109.6 74.45 109.35 74.4 110.0 74.25 109.0 74.3 108.05 74.3 Q108.2 74.15 109.45 73.75 L110.65 73.1 109.75 73.0 110.5 72.65 108.7 72.15 110.85 72.1 Q111.55 71.85 112.65 71.2 L111.3 71.45 113.05 70.1 112.45 70.3 Q112.65 69.95 113.15 69.85 L111.8 70.1 112.8 69.65 110.15 70.1 107.45 70.2 108.6 69.85 107.3 69.8 108.95 69.3 110.9 68.65 Q113.2 67.8 113.7 66.6 L113.45 66.6 113.8 66.2 113.45 66.25 113.7 66.1 112.0 66.1 112.9 65.75 113.6 65.35 113.3 65.2 114.1 64.8 112.2 65.05 113.85 63.8 Q113.7 63.8 113.7 63.9 113.85 63.45 114.05 63.4 L112.7 63.8 113.55 63.05 114.05 62.4 114.2 62.25 114.3 62.15 114.3 62.05 Q114.45 61.65 114.95 61.25 L114.95 61.0 115.2 62.25 115.1 61.35 Q115.1 61.85 115.25 62.15 L115.25 61.85 115.85 63.2 115.75 63.2 115.9 63.45 115.75 63.4 116.25 63.7 115.85 63.65 116.75 64.35 Q117.25 64.8 117.9 64.95 L116.15 64.45 116.65 65.05 116.25 64.85 116.5 65.2 116.0 65.2 116.5 65.7 Q117.05 66.25 118.3 66.65 L119.35 67.0 118.15 66.9 116.9 66.5 117.9 67.5 117.65 67.4 118.45 68.0 118.8 68.15 118.45 68.05 117.8 67.75 118.4 68.15 118.7 68.3 118.8 68.4 119.35 68.65 119.2 68.9 117.9 68.65 116.9 68.25 117.65 68.9 117.9 68.95 117.65 68.9 116.9 68.7 117.15 68.95 117.3 69.15 116.75 68.95 116.9 69.2 117.0 69.4 117.25 69.7 117.55 70.1 117.3 70.3 117.55 70.2 117.65 70.3 118.45 70.95 118.7 71.0 118.45 71.0 Q117.25 70.7 116.6 70.1 L116.6 70.8 116.8 71.5 116.65 71.45 116.8 71.85 117.05 72.1 117.3 72.4 117.4 72.5 117.65 72.75 117.9 73.0 118.3 73.4 118.05 73.5 118.3 73.4 118.15 73.5 118.05 73.5 118.15 73.55 117.95 73.65 117.8 73.65 117.9 73.8 117.15 74.55 116.15 75.55 Q114.95 76.45 113.7 76.05 116.35 77.1 117.55 75.8 L117.4 76.1 118.55 76.2 118.3 77.1 117.65 76.75 118.05 77.45 117.65 78.0 118.15 78.1 117.0 79.15 118.4 78.1 Q118.4 78.0 118.55 78.0 L118.65 78.1 Q117.5 80.65 115.6 82.95 L112.05 86.55 Q113.15 87.2 114.95 85.9 116.6 84.55 117.5 82.85 L117.3 86.05 Q117.05 87.45 116.35 88.6 L117.65 87.3 Q117.5 88.1 116.8 89.15 L117.65 88.5 117.05 89.75 117.65 89.1 117.5 89.75 104.5 89.75 104.75 89.65 105.1 89.5 105.9 89.0 106.8 88.35 105.3 88.95 104.85 89.1 104.75 89.1 104.75 89.0 105.0 88.85 106.7 88.1 108.95 87.3 Q109.0 87.2 109.2 87.2 L110.35 86.05 109.0 86.55 108.45 86.7 107.6 86.95 108.35 86.65 108.85 86.3 109.85 85.4 107.6 85.9 108.7 85.3 107.2 85.55 106.95 85.55 105.3 85.9 102.45 85.65 104.35 85.55 106.15 85.05 104.1 85.15 Q105.0 84.9 105.3 84.55 104.5 84.4 103.0 84.55 L100.65 84.65 102.55 84.35 Q103.7 84.1 104.15 83.6 L103.6 83.6 105.3 83.1 104.0 83.2 102.7 83.25 104.85 82.95 106.05 82.75 106.95 82.5 109.6 81.05 107.7 81.3 Q109.2 80.95 111.4 79.65 L111.15 79.75 108.3 80.05 109.1 79.65 Q109.2 79.55 109.25 79.55 L110.35 79.15 109.2 79.25 108.35 79.25 108.3 79.25 M155.0 75.3 L155.0 75.2 155.1 75.3 155.0 75.3 M156.25 74.25 L156.1 73.8 156.4 74.05 156.25 74.25 M156.75 73.75 L156.4 73.3 156.9 73.0 157.9 72.0 157.8 72.6 157.15 73.25 157.8 72.75 157.0 73.55 156.75 73.75 M156.1 72.9 L155.65 72.25 156.9 71.7 156.25 72.6 156.1 72.9 M155.25 71.35 L155.25 71.25 155.1 70.85 155.25 70.8 156.5 70.05 155.25 71.35 M153.8 63.0 L153.6 62.55 153.8 62.4 154.35 62.8 153.8 63.0 M154.5 62.75 L154.1 62.15 154.2 62.05 Q154.6 62.4 155.0 62.55 L154.5 62.75 M153.85 61.85 L153.7 61.6 153.95 61.85 153.85 61.85 M145.75 66.4 L145.15 66.25 145.8 66.35 145.75 66.4 M154.25 68.15 L154.5 68.05 154.2 68.15 154.25 68.15 M176.2 78.9 L176.05 78.65 177.25 78.9 176.75 78.9 176.2 78.9 M181.95 78.65 L181.45 78.6 181.1 78.6 181.3 78.6 182.35 78.65 181.95 78.65 M176.2 80.4 L176.2 80.3 176.3 80.4 176.2 80.4 M175.85 79.75 L175.7 79.55 176.45 79.75 175.85 79.75" fill="#16614a" fill-rule="evenodd" stroke="none"/>
    <path d="M183.0 77.85 L183.2 77.5 Q182.5 77.45 181.85 76.95 L182.85 76.75 Q181.7 76.45 181.1 75.45 L182.25 75.7 181.85 75.4 182.7 75.3 181.3 74.45 Q182.5 75.15 184.15 74.0 L184.25 73.8 183.9 73.9 184.35 73.55 185.3 71.1 184.9 71.5 185.05 70.05 184.55 70.6 183.75 70.95 184.65 69.7 185.55 68.5 185.8 66.25 186.05 66.1 186.3 67.75 186.7 69.3 186.55 69.05 186.7 69.65 186.45 69.4 186.65 69.8 186.4 69.55 Q186.85 70.95 187.3 71.35 L186.7 70.95 187.05 71.75 186.7 71.45 187.45 73.0 Q188.0 74.05 188.75 74.4 L187.55 73.55 188.45 74.7 187.55 74.05 Q187.85 75.15 188.85 76.3 L189.5 77.0 189.0 77.25 189.85 77.35 190.15 77.7 189.6 77.9 188.85 77.6 189.25 78.1 189.15 78.1 189.35 78.1 189.85 78.6 Q188.85 78.35 188.1 77.35 L188.7 78.5 187.95 77.85 188.5 79.4 188.6 79.5 188.85 80.15 Q188.25 80.4 187.8 80.65 L185.65 81.05 183.6 81.3 184.8 81.2 186.2 81.1 184.25 81.7 185.0 81.7 Q184.55 82.2 183.4 82.45 L182.1 82.6 182.5 80.45 181.95 80.9 181.35 81.35 181.7 79.9 180.95 80.45 181.6 79.75 182.35 78.75 182.35 78.65 182.7 78.25 183.0 77.85 M104.0 63.8 L104.85 63.15 104.65 63.15 105.5 62.15 105.15 62.4 105.5 62.0 105.55 61.65 105.1 62.25 104.5 62.65 105.1 61.4 Q104.15 62.05 102.8 62.4 L103.95 61.6 104.9 60.45 103.6 61.15 104.65 59.95 105.55 58.4 106.25 56.55 106.9 54.85 106.15 55.5 106.7 54.35 Q105.9 55.4 104.9 55.65 L106.0 54.6 104.35 54.95 106.0 53.2 107.4 50.9 106.4 51.55 107.3 50.4 106.05 51.25 107.45 49.85 108.2 48.1 107.85 48.5 108.2 47.6 107.6 48.05 108.55 46.2 108.3 46.45 108.55 46.05 108.3 46.2 Q108.3 45.9 108.45 45.65 L108.3 45.9 108.6 44.25 108.85 42.55 109.1 42.75 Q109.1 44.0 109.45 45.0 L110.35 46.3 111.3 47.6 110.4 47.3 109.9 46.7 110.1 48.3 109.6 47.85 110.65 50.4 111.05 50.75 110.85 50.65 110.9 50.8 Q112.55 51.95 113.85 51.3 L112.4 52.15 113.3 52.3 112.9 52.65 113.45 52.45 114.05 52.4 Q113.35 53.35 112.3 53.7 L113.2 53.95 112.0 54.5 Q112.45 55.6 114.2 57.65 L113.45 57.05 Q113.45 57.55 113.8 58.55 L113.2 58.05 112.55 57.55 Q112.8 59.55 113.3 60.7 L114.3 62.05 114.3 62.15 114.2 62.25 113.8 62.05 114.05 62.4 113.55 63.05 112.7 63.8 114.05 63.4 Q113.85 63.45 113.7 63.9 113.7 63.8 113.85 63.8 L112.2 65.05 114.1 64.8 113.3 65.2 113.6 65.35 112.9 65.75 112.0 66.1 113.7 66.1 113.45 66.25 113.8 66.2 113.45 66.6 113.7 66.6 Q113.2 67.8 110.9 68.65 L108.95 69.3 107.3 69.8 108.6 69.85 107.45 70.2 110.15 70.1 112.8 69.65 111.8 70.1 113.15 69.85 Q112.65 69.95 112.45 70.3 L113.05 70.1 111.3 71.45 112.65 71.2 Q111.55 71.85 110.85 72.1 L108.7 72.15 110.5 72.65 109.75 73.0 110.65 73.1 109.45 73.75 Q108.2 74.15 108.05 74.3 L109.0 74.3 110.0 74.25 109.35 74.4 109.6 74.45 108.7 74.9 107.8 75.2 110.65 75.15 110.0 75.7 Q110.35 75.55 110.75 75.7 L110.1 76.2 111.05 76.2 Q110.65 76.85 109.6 77.25 108.35 77.6 107.8 77.85 L109.1 77.9 110.4 77.75 109.85 78.1 110.5 78.25 109.35 78.75 108.1 79.15 108.3 79.25 108.6 79.5 Q107.05 79.05 105.25 77.1 L106.05 77.45 104.65 75.6 Q106.55 77.25 108.35 77.1 107.05 77.0 105.5 75.7 103.85 74.3 102.95 72.65 L102.95 72.6 103.0 72.6 103.6 73.1 102.85 72.25 102.95 71.95 102.7 72.15 102.6 72.1 102.7 72.15 102.55 72.0 102.8 71.2 102.85 69.4 Q102.35 70.3 101.45 70.95 L100.95 70.45 100.8 70.3 101.7 69.4 103.7 66.65 103.45 66.65 102.6 67.35 103.25 66.65 103.0 66.65 103.5 65.7 102.85 65.6 102.95 65.45 100.5 65.5 Q101.3 65.75 102.05 65.25 L102.7 64.7 Q104.4 65.95 105.5 65.25 L104.0 63.8 M116.5 65.7 L117.7 66.0 Q118.65 66.2 119.05 66.65 L118.3 66.65 Q117.05 66.25 116.5 65.7 M105.1 89.5 L104.85 89.1 105.3 88.95 105.4 88.95 105.1 89.5 M104.75 89.0 L104.65 88.75 105.0 88.85 104.75 89.0 M109.2 87.2 L108.45 86.7 109.0 86.55 110.35 86.05 109.2 87.2 M108.35 86.65 L108.05 86.4 107.2 85.55 108.7 85.3 107.6 85.9 109.85 85.4 108.85 86.3 108.35 86.65 M106.05 82.75 L105.0 81.35 107.55 81.6 105.3 79.75 Q108.85 81.05 111.15 79.75 L111.4 79.65 Q109.2 80.95 107.7 81.3 L109.6 81.05 106.95 82.5 106.05 82.75 M109.1 79.65 L108.35 79.25 109.2 79.25 110.35 79.15 109.25 79.55 Q109.2 79.55 109.1 79.65 M102.95 72.6 L102.85 72.6 102.95 72.6 M118.3 77.1 L118.05 77.45 117.65 76.75 118.3 77.1 M118.55 78.0 L118.7 78.0 118.65 78.1 118.55 78.0 M117.9 68.95 L118.15 68.95 117.3 69.2 116.9 69.2 116.75 68.95 117.3 69.15 117.15 68.95 117.55 68.95 117.9 68.95 M117.05 69.45 L117.3 69.65 117.25 69.7 117.0 69.4 117.05 69.45 M117.65 70.3 L117.9 70.3 118.85 69.95 118.45 70.45 118.65 70.35 119.1 70.2 118.45 70.95 117.65 70.3 M118.45 71.0 L117.4 71.75 117.5 71.75 118.05 71.75 118.15 71.75 117.9 72.0 Q117.7 72.1 117.65 72.15 L117.3 72.4 117.05 72.1 116.8 71.85 116.65 71.45 116.8 71.5 116.6 70.8 116.6 70.1 Q117.25 70.7 118.45 71.0 M182.05 82.75 L183.85 82.7 Q185.4 82.5 186.2 82.7 185.95 82.75 185.65 82.95 L185.0 83.2 186.95 83.1 185.25 83.65 183.25 83.75 186.15 84.0 187.85 83.65 189.5 83.4 188.45 83.9 190.15 83.6 190.4 83.85 189.9 84.25 189.65 84.15 189.85 84.35 189.75 84.35 Q189.6 84.4 189.4 84.55 L189.25 84.35 189.25 84.65 Q188.7 84.9 188.5 85.05 L189.25 84.8 189.35 84.75 189.6 85.05 189.25 84.8 189.75 85.4 187.6 86.15 Q186.05 86.65 185.55 87.1 L187.7 86.45 185.65 87.7 Q184.1 88.45 183.4 88.75 L186.8 88.25 186.05 88.6 Q185.3 88.85 185.25 88.95 L185.55 88.85 183.75 89.5 182.1 89.75 180.9 89.75 181.05 89.5 180.8 89.75 180.65 89.75 180.7 89.65 180.65 89.75 181.1 88.5 180.55 88.85 180.8 88.45 178.6 88.95 176.35 89.1 Q176.7 88.6 177.6 88.5 L178.9 88.2 Q179.95 87.7 180.95 86.3 180.55 86.3 180.15 86.65 L179.5 87.1 180.45 86.15 181.35 84.75 180.3 85.3 181.35 84.15 181.55 83.9 181.8 83.4 182.05 82.75 M190.5 83.5 L190.65 83.5 190.65 83.6 190.5 83.5 M189.6 84.75 L189.85 84.65 189.9 84.55 190.15 85.15 190.1 85.25 189.75 84.9 189.6 84.75 M190.3 84.5 L190.9 84.35 191.0 84.4 190.75 84.65 190.3 84.5 M187.45 89.75 Q189.1 89.35 190.15 88.75 L189.25 89.75 187.45 89.75" fill="#21846a" fill-rule="evenodd" stroke="none"/>
    <path d="M261.6 -55.95 L261.95 -55.35 261.35 -55.1 261.6 -55.95 M221.05 89.5 L220.65 89.9 220.15 89.45 221.05 89.5 M-56.35 91.65 L-55.3 89.45 -55.15 90.35 -56.35 91.65" fill="#fee745" fill-rule="evenodd" stroke="none"/>
    <path d="M-54.8 89.75 L-54.7 90.5 -55.15 90.6 -55.15 90.35 -54.8 89.75" fill="#fde751" fill-rule="evenodd" stroke="none"/>
    <path d="M-115.25 -70.65 L-115.15 -70.15 -115.3 -70.65 -115.25 -70.65" fill="#f5ea69" fill-rule="evenodd" stroke="none"/>
    <path d="M261.35 -55.1 L221.2 88.95 221.05 89.5 220.15 89.45 221.15 88.75 221.2 88.95 221.15 88.75 213.8 78.75 250.1 -47.8 248.5 -47.95 Q88.75 -61.75 -71.0 -45.0 L-71.9 -45.5 -81.3 -51.1 Q91.15 -71.85 260.4 -56.0 L260.3 -55.25 259.25 -54.6 259.55 -54.1 261.35 -55.1 M259.25 -54.6 L248.5 -47.95 259.25 -54.6 M-46.85 80.55 L-48.0 79.8 -47.15 78.65 -46.85 80.55 M-82.05 -51.0 L-81.3 -51.1 -82.65 -50.85 -82.65 -50.9 -82.05 -51.0" fill="#ff9900" fill-rule="evenodd" stroke="none"/>
    <path d="M213.8 78.75 L221.15 88.75 220.15 89.45 Q84.65 76.55 -54.7 90.5 L-54.8 89.75 -48.0 79.8 -46.85 80.55 Q85.2 69.0 213.8 78.75 M218.9 88.2 L220.15 89.45 218.9 88.2" fill="#fed865" fill-rule="evenodd" stroke="none"/>
    <path d="M-81.3 -51.1 L-71.9 -45.5 -47.15 78.65 -48.0 79.8 -54.8 89.75 -55.3 89.45 -82.65 -50.85 -81.3 -51.1" fill="#fecd3a" fill-rule="evenodd" stroke="none"/>
    <path d="M261.95 -55.35 L292.85 -71.85 245.1 113.25 244.35 113.15 243.9 113.15 220.65 89.9 221.05 89.5 221.2 88.95 261.35 -55.1 261.95 -55.35" fill="url(#gradient7)" fill-rule="evenodd" stroke="none"/>
    <path d="M261.6 -55.95 L261.45 -55.95 260.4 -56.0 Q91.15 -71.85 -81.3 -51.1 L-82.05 -51.0 -82.65 -50.9 -82.65 -50.85 -55.3 89.45 -56.35 91.65 -68.1 117.2 -69.5 117.25 -115.15 -70.15 -115.25 -70.65 Q99.9 -102.55 293.05 -72.85 L292.85 -71.85 261.95 -55.35 261.6 -55.95 M-83.55 -51.55 L-115.15 -70.15 -83.55 -51.55" fill="url(#gradient8)" fill-rule="evenodd" stroke="none"/>
    <path d="M220.65 89.9 L243.9 113.15 Q108.55 98.7 -68.1 117.2 L-56.35 91.65 -55.15 90.35 -55.15 90.6 -54.7 90.5 Q84.65 76.55 220.15 89.45 L220.65 89.9" fill="url(#gradient9)" fill-rule="evenodd" stroke="none"/>
    <path d="M261.35 -55.1 L259.55 -54.1 M220.15 89.45 L218.9 88.2" fill="none" stroke="#cc0000" stroke-linecap="round" stroke-linejoin="round" stroke-width="0.25"/>
    <path d="M260.4 -56.0 L261.45 -55.95 261.6 -55.95 261.35 -55.1 261.95 -55.35 292.85 -71.85 293.05 -72.85 Q99.9 -102.55 -115.25 -70.65 L-115.3 -70.65 -115.15 -70.15 -83.55 -51.55 M221.2 88.95 L221.05 89.5 220.15 89.45 220.65 89.9 243.9 113.15 244.35 113.15 245.1 113.25 292.85 -71.85 M-81.3 -51.1 L-71.9 -45.5 -71.0 -45.0 Q88.75 -61.75 248.5 -47.95 L259.25 -54.6 260.3 -55.25 M213.8 78.75 L250.1 -47.8 248.5 -47.95 M221.15 88.75 L213.8 78.75 Q85.2 69.0 -46.85 80.55 L-47.15 78.65 -48.0 79.8 -54.8 89.75 -55.15 90.35 -55.15 90.6 -54.7 90.5 M221.2 88.95 L221.15 88.75 M-82.65 -50.9 L-82.05 -51.0 -81.3 -51.1 M-82.65 -50.9 L-82.65 -50.85 M-55.3 89.45 L-56.35 91.65 -55.15 90.35 -55.3 89.45 M-68.1 117.2 L-69.5 117.25 -115.15 -70.15 M-56.35 91.65 L-68.1 117.2 Q108.55 98.7 243.9 113.15 M-47.15 78.65 L-71.9 -45.5" fill="none" stroke="#c83d02" stroke-linecap="round" stroke-linejoin="round" stroke-width="2.25"/>
  </g>
  <defs>
    <linearGradient gradientTransform="matrix(0.6319, -0.5324, 0.4976, 0.5906, 316.85, 151.15)" gradientUnits="userSpaceOnUse" id="gradient0" spreadMethod="pad" x1="-819.2" x2="819.2">
      <stop offset="0.0" stop-color="#faafcc"/>
      <stop offset="0.996078431372549" stop-color="#fde6ef"/>
    </linearGradient>
    <linearGradient gradientTransform="matrix(0.6808, 0.3901, -0.3294, 0.5749, 226.6, 166.4)" gradientUnits="userSpaceOnUse" id="gradient1" spreadMethod="pad" x1="-819.2" x2="819.2">
      <stop offset="0.0" stop-color="#faf9af"/>
      <stop offset="1.0" stop-color="#eec94d"/>
    </linearGradient>
    <radialGradient cx="0" cy="0" gradientTransform="matrix(0.091, 0.0, 0.0, 0.091, 193.15, 13.95)" gradientUnits="userSpaceOnUse" id="gradient2" r="819.2" spreadMethod="pad">
      <stop offset="0.06274509803921569" stop-color="#ffffff"/>
      <stop offset="0.615686274509804" stop-color="#1cade3"/>
    </radialGradient>
    <linearGradient gradientTransform="matrix(-0.0117, 0.0645, -0.0936, -0.0169, 3.35, 64.15)" gradientUnits="userSpaceOnUse" id="gradient3" spreadMethod="pad" x1="-819.2" x2="819.2">
      <stop offset="0.06274509803921569" stop-color="#ffffff"/>
      <stop offset="1.0" stop-color="#0099cc"/>
    </linearGradient>
    <radialGradient cx="0" cy="0" gradientTransform="matrix(0.091, 0.0, 0.0, 0.091, 193.15, 13.95)" gradientUnits="userSpaceOnUse" id="gradient4" r="819.2" spreadMethod="pad">
      <stop offset="0.06274509803921569" stop-color="#ffffff"/>
      <stop offset="0.615686274509804" stop-color="#0099cc"/>
    </radialGradient>
    <radialGradient cx="0" cy="0" gradientTransform="matrix(0.0451, 0.0, 0.0, 0.0451, 196.65, 16.8)" gradientUnits="userSpaceOnUse" id="gradient5" r="819.2" spreadMethod="pad">
      <stop offset="0.3333333333333333" stop-color="#ffffff"/>
      <stop offset="0.6823529411764706" stop-color="#ffffff" stop-opacity="0.0"/>
    </radialGradient>
    <linearGradient gradientTransform="matrix(0.0321, -0.0906, 0.1758, 0.0623, 101.95, 84.1)" gradientUnits="userSpaceOnUse" id="gradient6" spreadMethod="pad" x1="-819.2" x2="819.2">
      <stop offset="0.0" stop-color="#006600"/>
      <stop offset="1.0" stop-color="#99cc00"/>
    </linearGradient>
    <linearGradient gradientTransform="matrix(0.0351, 0.0031, -0.0101, 0.1147, 255.85, 19.45)" gradientUnits="userSpaceOnUse" id="gradient7" spreadMethod="pad" x1="-819.2" x2="819.2">
      <stop offset="0.0" stop-color="#ff9900"/>
      <stop offset="0.996078431372549" stop-color="#fed32c"/>
    </linearGradient>
    <linearGradient gradientTransform="matrix(-0.0063, -0.1201, 0.2486, -0.013, 93.2, 10.1)" gradientUnits="userSpaceOnUse" id="gradient8" spreadMethod="pad" x1="-819.2" x2="819.2">
      <stop offset="0.0" stop-color="#ff9900"/>
      <stop offset="0.996078431372549" stop-color="#fed32c"/>
    </linearGradient>
    <linearGradient gradientTransform="matrix(-0.0014, 0.0269, -0.1898, -0.01, 88.5, 103.3)" gradientUnits="userSpaceOnUse" id="gradient9" spreadMethod="pad" x1="-819.2" x2="819.2">
      <stop offset="0.0" stop-color="#ff9900"/>
      <stop offset="0.996078431372549" stop-color="#fed32c"/>
    </linearGradient>
  </defs>
</svg>
