<svg version="1.1" viewBox="0 0 145 143" xmlns="http://www.w3.org/2000/svg">
 <g transform="translate(0,2.8625)">
  <g transform="translate(.95 2.225)">
   <path d="m122.1 113.6q21 4 21 9.7t-21 9.7q-20.95 4.05-50.55 4.05-29.65 0-50.6-4.05-20.95-4-20.95-9.7t20.95-9.7 50.6-4q29.6 0 50.55 4" fill-opacity=".38824" fill-rule="evenodd"/>
   <path d="m5.55 115.7q0-27.35 19.3-46.65 19.35-19.3 46.65-19.3 27.35 0 46.6 19.3 19.35 19.3 19.35 46.65 0 4.35-0.5 8.55-64.5 16.8-130.9-0.15-0.5-4.15-0.5-8.4" fill="#f60" fill-rule="evenodd"/>
   <path d="m5.55 115.7q0-27.35 19.3-46.65 19.35-19.3 46.65-19.3 27.35 0 46.6 19.3 19.35 19.3 19.35 46.65 0 4.35-0.5 8.55-64.5 16.8-130.9-0.15-0.5-4.15-0.5-8.4z" fill="none" stroke="#bf4d00" stroke-linecap="round" stroke-linejoin="round" stroke-width="3"/>
   <path d="m13.1 112.9q-0.05-24.65 17.4-42.1 13.9-13.85 32.4-16.65-9.1 4.3-16.75 11.9-17.4 17.45-17.4 42.05 0 3.9 0.45 7.55 51.85 13.3 102.45 3.7l-0.15 1.2q-58.1 15.2-117.95-0.1-0.45-3.7-0.45-7.55" fill="#fff" fill-opacity=".25882" fill-rule="evenodd"/>
   <path d="m89.85 54.3q5.9 1.3 5.9 3.2 0 1.85-5.9 3.2-5.85 1.3-14.1 1.3-8.3 0-14.15-1.3-5.85-1.35-5.85-3.2 0-1.9 5.85-3.2 5.85-1.35 14.15-1.35 8.25 0 14.1 1.35" fill-opacity=".38824" fill-rule="evenodd"/>
   <path d="m56.6 57.85-17.85-52.55h66.05l-17.5 52.55q-15.35 6.7-30.7 0" fill="#f30" fill-rule="evenodd"/>
   <path d="m56.6 57.85-17.85-52.55h66.05l-17.5 52.55q-15.35 6.7-30.7 0z" fill="none" stroke="#bf4d00" stroke-linecap="round" stroke-linejoin="round" stroke-width="3"/>
   <path d="m47.85 8.3q-9.8-1.4-9.8-3.4 0-2.05 9.8-3.5 9.8-1.4 23.7-1.4l23.7 1.4q9.85 1.45 9.85 3.5 0 2-9.85 3.4l-23.7 1.45-23.7-1.45" fill="#bf2600" fill-rule="evenodd"/>
   <path d="m47.85 8.3c-6.5333-0.93333-9.8-2.0667-9.8-3.4 0-1.3667 3.2667-2.5333 9.8-3.5 6.5333-0.93333 14.433-1.4 23.7-1.4 0 0 15.841 0.32662 23.7 1.4 6.5667 0.96667 9.85 2.1333 9.85 3.5 0 1.3333-3.2833 2.4667-9.85 3.4l-23.7 1.45z" fill="none" stroke="#bf4d00" stroke-linecap="round" stroke-linejoin="round" stroke-width="3"/>
   <path d="m84.2 55.25q-12.55 5.45-25.05 0l-13.75-42.85 5.7 1.5 11.8 39.4q10.7 4.65 21.4 1.35l-0.1 0.6" fill="#fff" fill-opacity=".25098" fill-rule="evenodd"/>
  </g>
  <g transform="translate(0 .8)">
   <path d="m83.063 1.45h-21.1q-2.45-2.1 0-4.25h21.1q2.4 2.15 0 4.25" fill="#900" fill-rule="evenodd"/>
   <path d="m83.063 1.95h-21.1q-2.45-2.1 0-4.25h21.1q2.4 2.15 0 4.25z" fill="none" stroke="#ae4600" stroke-linecap="round" stroke-linejoin="round"/>
  </g>
  <g transform="matrix(1.5686 0 0 .5949 42.697 .8)">
   <path d="m32.4 9.4q-5.55 1.6-13.4 1.6t-13.45-1.6q-5.55-1.65-5.55-3.9 0-2.3 5.55-3.9 5.6-1.6 13.45-1.6t13.4 1.6q5.6 1.6 5.6 3.9 0 2.25-5.6 3.9" fill-opacity=".43922" fill-rule="evenodd"/>
  </g>
 </g>
</svg>
