<svg version="1.1" viewBox="0 0 145 143" xmlns="http://www.w3.org/2000/svg">
 <g transform="translate(0 2.8625)">
  <g transform="translate(.95 2.225)">
   <path d="m122.1 113.6q21 4 21 9.7t-21 9.7q-20.95 4.05-50.55 4.05-29.65 0-50.6-4.05-20.95-4-20.95-9.7t20.95-9.7 50.6-4q29.6 0 50.55 4" fill-opacity=".38824" fill-rule="evenodd"/>
   <path d="m5.55 115.7q0-27.35 19.3-46.65 19.35-19.3 46.65-19.3 27.35 0 46.6 19.3 19.35 19.3 19.35 46.65 0 4.35-0.5 8.55-64.5 16.8-130.9-0.15-0.5-4.15-0.5-8.4" fill="#f60" fill-rule="evenodd"/>
   <path d="m5.55 115.7q0-27.35 19.3-46.65 19.35-19.3 46.65-19.3 27.35 0 46.6 19.3 19.35 19.3 19.35 46.65 0 4.35-0.5 8.55-64.5 16.8-130.9-0.15-0.5-4.15-0.5-8.4z" fill="none" stroke="#bf4d00" stroke-linecap="round" stroke-linejoin="round" stroke-width="3"/>
   <path d="m13.05 112.9q-0.05-24.65 17.4-42.1 13.9-13.85 32.4-16.65-9.1 4.3-16.75 11.9-17.4 17.45-17.4 42.05 0 3.9 0.45 7.55 51.85 13.3 102.45 3.7l-0.15 1.2q-58.1 15.2-117.95-0.1-0.45-3.7-0.45-7.55" fill="#fff" fill-opacity=".25882" fill-rule="evenodd"/>
   <path d="m89.8 54.3q5.9 1.3 5.9 3.2 0 1.85-5.9 3.2-5.85 1.3-14.1 1.3-8.3 0-14.15-1.3-5.85-1.35-5.85-3.2 0-1.9 5.85-3.2 5.85-1.35 14.15-1.35 8.25 0 14.1 1.35" fill-opacity=".38824" fill-rule="evenodd"/>
   <path d="m97.75 5.3-10.5 52.55q-15.35 6.7-30.75 0l-11.3-52.55h52.55" fill="#f30" fill-rule="evenodd"/>
   <path d="m97.75 5.3-10.5 52.55q-15.35 6.7-30.75 0l-11.3-52.55z" fill="none" stroke="#bf4d00" stroke-linecap="round" stroke-linejoin="round" stroke-width="3"/>
   <path d="m52.9 8.3q-7.7-1.4-7.7-3.4 0-2.05 7.7-3.5 7.7-1.4 18.65-1.4 10.9 0 18.6 1.4 7.7 1.45 7.7 3.5 0 2-7.7 3.4-7.7 1.45-18.6 1.45-10.95 0-18.65-1.45" fill="#bf2600" fill-rule="evenodd"/>
   <path d="m52.9 8.3q-7.7-1.4-7.7-3.4 0-2.05 7.7-3.5 7.7-1.4 18.65-1.4 10.9 0 18.6 1.4 7.7 1.45 7.7 3.5 0 2-7.7 3.4-7.7 1.45-18.6 1.45-10.95 0-18.65-1.45z" fill="none" stroke="#bf4d00" stroke-linecap="round" stroke-linejoin="round" stroke-width="3"/>
   <path d="m54.1 12.4 8.8 40.9q10.7 4.65 21.4 1.35l-0.15 0.6q-12.5 5.5-25.05 0l-9.2-42.85h4.2" fill="#fff" fill-opacity=".25098" fill-rule="evenodd"/>
  </g>
  <g transform="matrix(.89776 0 0 1.0111 61.473 -2.8847)">
   <path d="m23.562 5.625h-21.1q-2.45-2.1 0-4.25h21.1q2.4 2.15 0 4.25" fill="#900" fill-rule="evenodd"/>
   <path d="m23.562 5.625h-21.1q-2.45-2.1 0-4.25h21.1q2.4 2.15 0 4.25z" fill="none" stroke="#ae4600" stroke-linecap="round" stroke-linejoin="round"/>
  </g>
  <g transform="matrix(1.2133 0 0 .66928 49.448 .8)">
   <path d="m32.4 9.4q-5.55 1.6-13.4 1.6t-13.45-1.6q-5.55-1.65-5.55-3.9 0-2.3 5.55-3.9 5.6-1.6 13.45-1.6t13.4 1.6q5.6 1.6 5.6 3.9 0 2.25-5.6 3.9" fill-opacity=".43922" fill-rule="evenodd"/>
  </g>
 </g>
</svg>
